<svg xmlns="http://www.w3.org/2000/svg" width="11.476" height="9.571" viewBox="0 0 11.476 9.571"><defs><style>.a{fill:#fff}</style></defs><path class="a" d="M0 .354A.43.43 0 01.466 0c.659.006 1.317 0 1.976 0a.473.473 0 01.407.217q1.569 2.108 3.145 4.21a.519.519 0 010 .715q-1.573 2.1-3.145 4.21a.473.473 0 01-.408.217c-.659 0-1.318-.006-1.976 0A.43.43 0 010 9.216v-.178a2.619 2.619 0 01.164-.29q1.425-1.912 2.854-3.82c.035-.046.068-.093.1-.144l-.1-.133Q1.59 2.732.157.812A2.462 2.462 0 010 .532V.354"/><path class="a" d="M8.461 4.785l-.555-.743L5.467.777a.483.483 0 01.017-.675.424.424 0 01.255-.1c.7-.007 1.4 0 2.093 0a.392.392 0 01.326.178l3.2 4.277a.5.5 0 010 .657l-3.2 4.277a.4.4 0 01-.336.177H5.749a.369.369 0 01-.378-.264.514.514 0 01.095-.512q1.412-1.886 2.822-3.775l.173-.233"/></svg>