<svg xmlns="http://www.w3.org/2000/svg" width="62" height="62" viewBox="0 0 62 62"><g transform="translate(-81 -664)"><circle cx="31" cy="31" r="31" transform="translate(81 664)" fill="#fff"/><path d="M106.147 680.966a10.307 10.307 0 00-3.428.664 7.227 7.227 0 00-4.124 4.136 10.382 10.382 0 00-.65 3.431c-.066 1.5-.081 1.988-.074 5.825s.024 4.318.1 5.826a10.329 10.329 0 00.664 3.428 7.223 7.223 0 004.135 4.129 10.374 10.374 0 003.431.65c1.5.066 1.988.081 5.824.074s4.319-.024 5.826-.1a10.339 10.339 0 003.429-.663 7.222 7.222 0 004.124-4.141 10.336 10.336 0 00.65-3.429c.066-1.508.081-1.99.074-5.827s-.025-4.318-.1-5.825a10.321 10.321 0 00-.658-3.425 6.937 6.937 0 00-1.634-2.5 6.9 6.9 0 00-2.506-1.624 10.34 10.34 0 00-3.431-.65c-1.505-.065-1.989-.079-5.829-.079s-4.318.024-5.825.1m.165 25.545a7.842 7.842 0 01-2.624-.48 4.4 4.4 0 01-1.627-1.054 4.352 4.352 0 01-1.06-1.623 7.826 7.826 0 01-.491-2.623c-.07-1.489-.085-1.936-.093-5.709s.006-4.219.072-5.709a7.82 7.82 0 01.483-2.622 4.376 4.376 0 011.053-1.625 4.362 4.362 0 011.623-1.06 7.825 7.825 0 012.624-.493c1.49-.071 1.937-.085 5.709-.093s4.22.006 5.71.072a7.815 7.815 0 012.623.48 4.678 4.678 0 012.687 2.677 7.785 7.785 0 01.491 2.622c.071 1.49.087 1.937.094 5.709s-.007 4.22-.072 5.709a7.851 7.851 0 01-.48 2.625 4.68 4.68 0 01-2.677 2.687 7.827 7.827 0 01-2.622.491c-1.49.07-1.937.085-5.71.093s-4.219-.007-5.709-.072m11.518-19.066a1.7 1.7 0 101.692-1.7 1.7 1.7 0 00-1.692 1.7m-13.088 7.567a7.256 7.256 0 107.241-7.27 7.255 7.255 0 00-7.241 7.27m2.545-.005a4.71 4.71 0 114.72 4.7 4.71 4.71 0 01-4.72-4.7" fill="#2f2f2f"/></g></svg>