<svg xmlns="http://www.w3.org/2000/svg" width="199" height="63" viewBox="0 0 199 63"><defs><linearGradient id="a" y1=".5" x2="1" y2=".5" gradientUnits="objectBoundingBox"><stop offset="0" stop-color="#f3c344"/><stop offset="1" stop-color="#d6156e"/></linearGradient></defs><g transform="translate(-1501 -5340.873)"><rect width="199" height="63" rx="6" transform="translate(1501 5340.873)" fill="#fff"/><path d="M268.3 329.786L253.52 355.4l-5.031-8.716 9.749-16.885 10.059-.015m8.784-5.082l-21.773.031-12.674 21.951 10.886 18.855 23.56-40.839z" transform="translate(1285.717 5025.574)" fill="url(#a)"/><path d="M1540.81 5394.209l-.862-1.865 24.287-42.066 2.137.031 1.8 3.111 7.913 13.7 2.963 5.14-6.57 11.489.014.024-2.956 5.119-5.1-8.841-8.304 14.127h-5.748l11.151-19.14-2.92-5.06-13.978 24.231zm28.669-15.65l3.646-6.316-7.911-13.7-3.644 6.318zm18.769-19.702a3.469 3.469 0 012.625.949 3.536 3.536 0 01.918 2.415 3.1 3.1 0 01-.853 2.238 3.01 3.01 0 01-1.482.741l3.365 4.395h-3.456l-2.672-4.121v4.121h-2.789v-10.738zm-1.56 4.813h.531a2.092 2.092 0 001.353-.436 1.338 1.338 0 00.354-.9 1.266 1.266 0 00-.37-.9 1.89 1.89 0 00-1.336-.418h-.532zm14.701 2.802h-5.361a1.817 1.817 0 00.45 1.207 1.449 1.449 0 001.063.354 2.033 2.033 0 00.837-.193 1.206 1.206 0 00.451-.483h2.463a3.235 3.235 0 01-.872 1.482 3.911 3.911 0 01-2.93 1 4.079 4.079 0 01-2.978-1.094 3.77 3.77 0 01-1.062-2.721 3.842 3.842 0 011.078-2.789 4.053 4.053 0 012.947-1.046 3.942 3.942 0 012.769.982 4.027 4.027 0 011.143 3.026zm-2.366-1.482a1.724 1.724 0 00-.418-.772 1.5 1.5 0 00-1.063-.386 1.384 1.384 0 00-1.046.386 1.467 1.467 0 00-.386.772zm3.851-2.586h2.577v.9a2.715 2.715 0 012.286-1.063 2.91 2.91 0 012.125.772 2.481 2.481 0 01.676 2.013v4.573h-2.576v-3.64a2.066 2.066 0 00-.323-1.4 1.077 1.077 0 00-.82-.306 1.408 1.408 0 00-.95.338 1.656 1.656 0 00-.418 1.143v3.864h-2.577zm12.265 2.104v5.088h-2.574v-5.088h-.82v-2.109h.82v-2.367h2.577v2.367h1.465v2.109zm9.224 3.284h-3.892l-.724 1.8h-2.946l4.121-10.738h3.036l4.041 10.738h-2.978zm-.74-2.125l-1.211-3.478-1.175 3.478zm13.33 3.638a6.624 6.624 0 01-2.415.531 5.84 5.84 0 01-4.153-1.61 5.611 5.611 0 014.057-9.547 6.659 6.659 0 012.512.547v3.333a2.991 2.991 0 00-2.431-1.175 2.719 2.719 0 00-1.932.708 3 3 0 00-.933 2.205 2.964 2.964 0 00.872 2.092 3 3 0 002 .74 3.151 3.151 0 002.431-1.126zm7.097-6.906h2.577v7.2h-2.577v-.789a2.687 2.687 0 01-2.237 1.03 3.445 3.445 0 01-2.592-1.143 3.628 3.628 0 01-1.03-2.64 3.981 3.981 0 011.11-2.882 3.7 3.7 0 012.592-1.015 2.848 2.848 0 012.157.934zm-2.7 2.415a1.683 1.683 0 00-.515 1.175 1.656 1.656 0 00.5 1.175 1.805 1.805 0 001.158.483 1.656 1.656 0 001.159-.5 1.563 1.563 0 00.482-1.159 1.59 1.59 0 00-.5-1.175 1.632 1.632 0 00-2.286 0zm7.051-2.416h2.577v1.175a2.321 2.321 0 011.014-1 2.815 2.815 0 011.336-.289c.064 0 .174.017.515.032v2.431a2.273 2.273 0 00-1.11-.262 1.689 1.689 0 00-1.175.386 2.172 2.172 0 00-.58 1.642v3.076h-2.577zm-48.366 29.468a10.5 10.5 0 01-13.843 0 9.184 9.184 0 010-13.132 10.5 10.5 0 0113.843 0 9.182 9.182 0 010 13.132zm-10.474-9.921a4.809 4.809 0 00-1.4 3.447 4.461 4.461 0 001.4 3.263 4.979 4.979 0 003.553 1.395 4.73 4.73 0 003.526-8.105 5.255 5.255 0 00-3.527-1.395 5.055 5.055 0 00-3.552 1.395zm19.371 1.814l5.578-7.235h5.632l-6.973 8.316 7.606 9.239h-5.895l-5.948-7.614v7.606h-4.553v-17.55h4.553zm17.107-7.237v17.553h-4.553v-17.553zm9.475 0a5.666 5.666 0 014.289 1.552 5.777 5.777 0 011.5 3.948 5.066 5.066 0 01-1.395 3.661 4.916 4.916 0 01-2.421 1.211l5.5 7.185h-5.653l-4.366-6.74v6.737h-4.553v-17.554zm-2.553 7.869h.872a3.422 3.422 0 002.211-.71 2.187 2.187 0 00.579-1.474 2.071 2.071 0 00-.6-1.474 3.092 3.092 0 00-2.184-.683h-.872zm20.606-4.001h-5.421v2.922h5.131v3.868h-5.131v3.027h5.421v3.868h-9.973v-17.553h9.973zm1.581 13.685v-17.553h4.553l8.395 10.738v-10.738h4.553v17.553h-4.553l-8.395-10.737v10.737z"/></g></svg>