<svg xmlns="http://www.w3.org/2000/svg" width="20.274" height="16.907" viewBox="0 0 20.274 16.907"><defs><style>.a{fill:#266fbf}</style></defs><path class="a" d="M0 .625A.76.76 0 01.823 0C1.987.012 3.15.009 4.314 0a.835.835 0 01.72.383q2.772 3.725 5.555 7.438a.917.917 0 010 1.263Q7.811 12.8 5.035 16.523a.836.836 0 01-.72.383 213.812 213.812 0 00-3.491 0A.76.76 0 010 16.281v-.315a4.627 4.627 0 01.289-.512q2.517-3.378 5.041-6.748c.061-.082.121-.165.185-.254a12.896 12.896 0 00-.173-.235L.277 1.435A4.35 4.35 0 010 .94V.625"/><path class="a" d="M14.947 8.449l-.98-1.313-4.309-5.768A.854.854 0 019.687.176a.749.749 0 01.45-.169c1.232-.013 2.465-.007 3.7-.008a.692.692 0 01.575.314q2.821 3.779 5.645 7.556a.883.883 0 010 1.161q-2.821 3.779-5.645 7.556a.7.7 0 01-.594.313h-3.66a.653.653 0 01-.667-.466.908.908 0 01.167-.9q2.494-3.332 4.985-6.669l.305-.411"/></svg>