<svg xmlns="http://www.w3.org/2000/svg" width="267.991" height="23.23" viewBox="0 0 267.991 23.23">
  <g id="グループ_62" data-name="グループ 62" transform="translate(2353.991 226.38)">
    <path id="パス_1" data-name="パス 1" d="M21.851,1.05h7.382c.972.006,1.221.545.747,1.607L25.005,14.349a3.088,3.088,0,0,1-.5.83,2.429,2.429,0,0,1-1.631.391H16.064c-.706-.059-.925-.545-.67-1.459l2.532-5.947L.963,8.183a2.131,2.131,0,0,1-.528-.125q-.694-.391-.267-1.37L2.249,1.756c.047-.095.089-.178.119-.243.16-.279.516-.427,1.079-.439l18.4-.018ZM6.856,9.452a1.582,1.582,0,0,1,1.387-.516h7.044c.961.006,1.2.545.723,1.607l-5,11.888a3.051,3.051,0,0,1-.528.806,2.275,2.275,0,0,1-1.607.415h-6.8c-.717-.077-.943-.563-.67-1.459L6.518,10.086a3.922,3.922,0,0,1,.338-.634Z" transform="translate(-2353.997 -226.802)" fill="#034898"/>
    <path id="パス_2" data-name="パス 2" d="M48.4,8.534a1.582,1.582,0,0,1,1.387-.516h7.02c.972.006,1.221.545.747,1.607L52.151,22.4a3.761,3.761,0,0,1-.5.806,2.316,2.316,0,0,1-1.631.415H43.21a.505.505,0,0,1-.19-.018q-1.058-.1-.48-1.441L48.06,9.168a2.909,2.909,0,0,1,.332-.634ZM62.076,1.526a1.582,1.582,0,0,1,1.387-.516h7.02c.972.006,1.221.545.747,1.607L65.349,16.485h6.492a.978.978,0,0,1,.385.065c.433.178.528.551.291,1.127l-2.176,5.164a1.017,1.017,0,0,1-.166.219,1.717,1.717,0,0,1-1.488.54H60.132l-6.208.012c-.717-.083-.943-.569-.67-1.464L61.738,2.16A2.656,2.656,0,0,1,62.076,1.526Z" transform="translate(-2371.229 -226.785)" fill="#034898"/>
    <path id="パス_3" data-name="パス 3" d="M121.544.95h8.17c.237.006.374.148.409.409a.946.946,0,0,1-.385.759l-12.4,10.062c.095.148.19.32.291.516l3.913,9.238c.48,1.061.231,1.595-.741,1.613h-7.02a1.628,1.628,0,0,1-1.393-.48,3.57,3.57,0,0,1-.362-.634l-1.874-4.447-5.988,4.874a2.765,2.765,0,0,1-1.008.658,3.729,3.729,0,0,1-.694.047H94.573q-.818.009-.765-.48a1.023,1.023,0,0,1,.409-.688L111.862,8.071l-10.376.012a.8.8,0,0,1-.889-.634,1.331,1.331,0,0,1,.095-.854l2.1-4.939a.936.936,0,0,1,.551-.587,2.959,2.959,0,0,1,.623-.1L121.485.95h.047Z" transform="translate(-2392.181 -226.761)" fill="#034898"/>
    <path id="パス_4" data-name="パス 4" d="M154.515,1.434A1.582,1.582,0,0,1,155.9.918L173.945.9h7.405c.961.006,1.2.545.723,1.607l-8.366,19.744a2.675,2.675,0,0,1-.5.83,2.316,2.316,0,0,1-1.63.415h-6.807a1.077,1.077,0,0,0-.19-.018q-1.058-.125-.48-1.441l2.366-5.579h-5.846a1.218,1.218,0,0,1-.528-.119q-.694-.391-.267-1.37l2.081-4.939c.047-.095.089-.178.119-.243.16-.279.516-.427,1.079-.439h6.374l.575-1.328h-8.7L158.268,15.3a2.743,2.743,0,0,1-.5.806,2.316,2.316,0,0,1-1.631.415h-6.807c-.866.006-1.079-.48-.646-1.459l5.5-12.991a4.457,4.457,0,0,1,.338-.634Z" transform="translate(-2414.432 -226.741)" fill="#034898"/>
    <g id="グループ_61" data-name="グループ 61">
      <path id="パス_5" data-name="パス 5" d="M205.631,2.03A1.9,1.9,0,0,1,206.42,1a2.788,2.788,0,0,1,.937-.125h7.02c.972-.006,1.233.516.771,1.559l-.024.047-5.882,13.868,17.206-.042a.687.687,0,0,1,.789.611,1.281,1.281,0,0,1-.119.611L224.943,22.7a1.362,1.362,0,0,1-1.008.711,3.592,3.592,0,0,1-.646.047l-25.472.024c-.812,0-1.061-.421-.747-1.269q.044-.125.071-.2Z" transform="translate(-2434.166 -226.732)" fill="#034898"/>
      <path id="パス_6" data-name="パス 6" d="M310.082,1.284a1.582,1.582,0,0,1,1.387-.516L329.512.75h7.405c.961.006,1.2.545.717,1.607L329.269,22.1a2.674,2.674,0,0,1-.5.83,2.316,2.316,0,0,1-1.63.415h-6.807a1.077,1.077,0,0,0-.19-.018q-1.058-.125-.48-1.441l2.366-5.579h-5.846a1.219,1.219,0,0,1-.528-.119q-.694-.391-.267-1.37l2.081-4.939c.047-.095.089-.178.119-.243.16-.279.516-.427,1.079-.439h6.374l.575-1.328h-8.7l-3.083,7.275a2.742,2.742,0,0,1-.5.806,2.316,2.316,0,0,1-1.63.415h-6.807c-.86.006-1.079-.48-.646-1.459l5.5-12.991a3.919,3.919,0,0,1,.338-.634Z" transform="translate(-2477.76 -226.679)" fill="#034898"/>
      <path id="パス_7" data-name="パス 7" d="M362.716,8.556l2.846-6.676a2.655,2.655,0,0,1,.338-.634A1.582,1.582,0,0,1,367.287.73h7.02c.972.006,1.221.545.747,1.607l-2.633,6.214,12.842-.012a1.106,1.106,0,0,1,.385.071c.445.178.546.551.29,1.127l-.308.735a1.936,1.936,0,0,1-.142.368q-.382.88-1.127,2.644c-.273.634-.468,1.109-.6,1.417a.361.361,0,0,1-.071.095l-3.036,7.091a3.086,3.086,0,0,1-.5.83,2.429,2.429,0,0,1-1.63.391h-6.807c-.717-.059-.943-.545-.67-1.459l2.656-6.19h-4.287L366.688,22.1a3.615,3.615,0,0,1-.5.806,2.316,2.316,0,0,1-1.631.415h-6.807c-.717-.077-.943-.563-.67-1.459l2.633-6.19h-2.947a1.218,1.218,0,0,1-.528-.119q-.694-.391-.267-1.37l2.081-4.939c.047-.1.089-.178.119-.243.16-.279.516-.427,1.079-.439h3.474Z" transform="translate(-2498.839 -226.671)" fill="#034898"/>
      <path id="パス_8" data-name="パス 8" d="M410.64,13.857l22.335-.047c.462,0,.729.2.789.587a1.335,1.335,0,0,1-.119.634L431.469,20.2a1.362,1.362,0,0,1-1.008.711,3.591,3.591,0,0,1-.646.047l-21.665.024a.833.833,0,0,1-.913-.634,1.537,1.537,0,0,1,.119-.854l2.081-4.939a1.034,1.034,0,0,1,.551-.587,3.448,3.448,0,0,1,.646-.1Z" transform="translate(-2519.768 -231.996)" fill="#034898"/>
      <path id="パス_9" data-name="パス 9" d="M263.724,5.267h11.84a1.888,1.888,0,0,0,1.66-1.109l1.085-2.615A1.137,1.137,0,0,0,278.238.47a1.125,1.125,0,0,0-.961-.48h-11.8a1.908,1.908,0,0,0-1.666,1.1L262.7,3.713a1.121,1.121,0,0,0,.065,1.073A1.125,1.125,0,0,0,263.724,5.267Z" transform="translate(-2460.893 -226.37)" fill="#034898"/>
      <path id="パス_10" data-name="パス 10" d="M282.338,13.09a1.125,1.125,0,0,0-.961-.48h-5.959a1.888,1.888,0,0,0-1.66,1.109l-2.52,6.071a.753.753,0,0,1-.6.4H254.151a1.892,1.892,0,0,0-1.66,1.1l-2.241,5.342a1.081,1.081,0,0,0,1.032,1.553h24.114a1.888,1.888,0,0,0,1.66-1.109l5.36-12.92a1.137,1.137,0,0,0-.071-1.073Z" transform="translate(-2455.826 -231.508)" fill="#034898"/>
    </g>
  </g>
</svg>
