<svg xmlns="http://www.w3.org/2000/svg" width="304.24" height="40.616" viewBox="0 0 304.24 40.616"><defs><clipPath id="a"><path fill="#fff" d="M0 0h304.24v40.616H0z"/></clipPath></defs><g clip-path="url(#a)" fill="#fff"><path d="M35.895.526h12.129c1.6.01 2.01.9 1.228 2.64l-8.174 19.212a5.072 5.072 0 01-.828 1.367 3.991 3.991 0 01-2.679.643H26.386c-1.159-.1-1.52-.9-1.1-2.4l4.16-9.771-27.873.035a3.5 3.5 0 01-.867-.2q-1.14-.643-.438-2.251l3.418-8.116c.081-.156.147-.292.195-.4.263-.458.848-.7 1.773-.724l30.24-.029zM11.256 14.331a2.6 2.6 0 012.279-.848H25.11c1.578.01 1.968.9 1.188 2.64l-8.211 19.534a5.011 5.011 0 01-.867 1.325 3.741 3.741 0 01-2.64.682H3.4c-1.179-.127-1.549-.926-1.1-2.4l8.4-19.894a6.432 6.432 0 01.556-1.045zm39.945-1.48a2.6 2.6 0 012.279-.848h11.531c1.6.01 2.01.9 1.228 2.64l-8.875 20.985a6.169 6.169 0 01-.828 1.325 3.806 3.806 0 01-2.679.682H42.676a.827.827 0 01-.312-.029q-1.739-.161-.789-2.367l9.07-21.345a4.783 4.783 0 01.546-1.045zM73.676 1.334a2.6 2.6 0 012.279-.848H87.49c1.6.01 2.01.9 1.228 2.64l-9.664 22.788h10.668a1.612 1.612 0 01.634.107c.711.292.867.906.478 1.849l-3.577 8.488a1.677 1.677 0 01-.273.36 2.821 2.821 0 01-2.445.885h-14.06l-10.2.024c-1.179-.137-1.549-.935-1.1-2.407L73.121 2.377a4.359 4.359 0 01.556-1.043m63.287-.905h13.428c.39.01.614.241.672.672a1.554 1.554 0 01-.634 1.247l-20.385 16.535c.156.241.312.526.478.848l6.432 15.178c.789 1.744.38 2.621-1.218 2.654H124.2a2.676 2.676 0 01-2.289-.789 5.869 5.869 0 01-.594-1.045l-3.081-7.309-9.84 8.008a4.544 4.544 0 01-1.656 1.081 6.12 6.12 0 01-1.14.08H92.644q-1.344.014-1.257-.789a1.68 1.68 0 01.672-1.13l28.99-23.542-17.046.02a1.315 1.315 0 01-1.461-1.045 2.186 2.186 0 01.156-1.4l3.458-8.115a1.538 1.538 0 01.906-.965 4.87 4.87 0 011.023-.166l28.779-.028h.1zm17.613.827a2.6 2.6 0 012.279-.848l29.646-.029h12.168c1.578.01 1.968.9 1.188 2.64l-13.745 32.442a4.4 4.4 0 01-.828 1.367 3.808 3.808 0 01-2.679.682h-11.185a1.778 1.778 0 00-.312-.029q-1.739-.2-.789-2.367l3.887-9.167h-9.6a2 2 0 01-.867-.195q-1.14-.643-.438-2.251l3.416-8.113c.08-.156.147-.292.195-.4.263-.457.848-.7 1.773-.724h10.472l.945-2.182H165.81l-5.063 11.949a4.506 4.506 0 01-.828 1.325 3.807 3.807 0 01-2.679.682h-11.193c-1.422.01-1.773-.789-1.062-2.4l9.031-21.343a7.3 7.3 0 01.556-1.045zm66.074-.822h38.353a.971.971 0 01.894.436 1.082 1.082 0 01.02 1.035l-3.475 8.28a2.378 2.378 0 01-.888 1.035 2.223 2.223 0 01-1.26.436H233.88a.562.562 0 00-.524.338l-1 2.378a.568.568 0 00.547.77h16.244a.972.972 0 01.894.436 1.082 1.082 0 01.019 1.035l-3.452 8.226a2.378 2.378 0 01-.888 1.035 2.223 2.223 0 01-1.26.436h-17.079a.563.563 0 00-.524.338l-4.385 10.448a2.371 2.371 0 01-.887 1.035 2.223 2.223 0 01-1.26.436h-15.676a.969.969 0 01-.895-.436 1.08 1.08 0 01-.019-1.035L218.503 1.9a2.374 2.374 0 01.884-1.03 2.224 2.224 0 011.26-.436m53.764 15.498l-3.673 8.753q-.941 2.244.21 3.446a5.132 5.132 0 003.831 1.2 9.507 9.507 0 004.206-.766 11.105 11.105 0 002.959-2.243 4.012 4.012 0 012.758-1.477h13.008a.852.852 0 01.778.371.909.909 0 01.021.881q-2.222 5.294-9.36 9.678a32.764 32.764 0 01-8.516 3.5 41.871 41.871 0 01-10.919 1.337 26.691 26.691 0 01-10.148-1.72 9.45 9.45 0 01-5.612-5.641q-1.427-3.92.964-9.618l2.794-6.658a24.986 24.986 0 017.12-9.646q8.858-7.33 22.408-7.33a28.464 28.464 0 019.315 1.338 12.077 12.077 0 015.574 3.501 8.993 8.993 0 011.239 9.676 2.023 2.023 0 01-.761.883 1.935 1.935 0 01-1.089.37h-13.005q-1.326 0-1.518-1.476a3.434 3.434 0 00-1.077-2.243q-.885-.765-3.563-.766a9.782 9.782 0 00-4.841 1.2 6.908 6.908 0 00-3.1 3.446"/></g></svg>