<svg xmlns="http://www.w3.org/2000/svg" width="236.397" height="31.559" viewBox="0 0 236.397 31.559"><defs><clipPath id="a"><path fill="#246bba" d="M0 0h236.397v31.559H0z"/></clipPath></defs><g clip-path="url(#a)" fill="#246bba"><path d="M27.891.409h9.424c1.241.007 1.562.7.954 2.051l-6.351 14.928a3.941 3.941 0 01-.644 1.062 3.1 3.1 0 01-2.082.5H20.5c-.9-.076-1.181-.7-.855-1.862l3.233-7.592-21.657.022a2.721 2.721 0 01-.674-.158q-.886-.5-.34-1.749l2.657-6.3c.063-.121.114-.227.151-.312.2-.356.659-.545 1.378-.563l23.5-.022zM8.746 11.135a2.019 2.019 0 011.771-.659h8.993c1.226.007 1.529.7.923 2.051l-6.38 15.178a3.893 3.893 0 01-.673 1.03 2.907 2.907 0 01-2.051.53H2.645c-.916-.1-1.2-.719-.855-1.863l6.524-15.457a5 5 0 01.432-.812zm31.037-1.151a2.02 2.02 0 011.771-.659h8.96c1.242.008 1.562.7.954 2.051l-6.9 16.307a4.794 4.794 0 01-.644 1.03 2.958 2.958 0 01-2.082.53h-8.688a.643.643 0 01-.243-.023q-1.351-.125-.613-1.839l7.048-16.585a3.716 3.716 0 01.424-.812zm17.464-8.947a2.019 2.019 0 011.771-.659h8.963c1.242.007 1.562.7.954 2.051l-7.509 17.706h8.289a1.253 1.253 0 01.492.083c.552.227.674.7.371 1.437l-2.779 6.6a1.3 1.3 0 01-.212.28 2.192 2.192 0 01-1.9.687H54.768l-7.925.019c-.916-.106-1.2-.727-.855-1.87L56.815 1.848a3.387 3.387 0 01.432-.81M106.42.333h10.434c.3.007.477.187.522.522a1.207 1.207 0 01-.492.969l-15.838 12.848c.121.188.242.409.371.659l5 11.794c.613 1.355.3 2.036-.946 2.062h-8.965a2.079 2.079 0 01-1.779-.613 4.561 4.561 0 01-.462-.812l-2.394-5.679-7.645 6.222a3.53 3.53 0 01-1.287.84 4.755 4.755 0 01-.886.062H71.986q-1.045.011-.976-.613a1.306 1.306 0 01.522-.878L94.055 9.423l-13.245.015a1.021 1.021 0 01-1.136-.812 1.7 1.7 0 01.121-1.09l2.691-6.306a1.2 1.2 0 01.7-.75 3.784 3.784 0 01.795-.129l22.363-.019h.076zm13.687.643a2.019 2.019 0 011.771-.659l23.036-.022h9.455c1.227.008 1.529.7.923 2.051l-10.681 25.208a3.416 3.416 0 01-.643 1.062 2.959 2.959 0 01-2.082.53h-8.691a1.382 1.382 0 00-.242-.023q-1.351-.158-.613-1.839l3.021-7.122h-7.466a1.557 1.557 0 01-.673-.151q-.886-.5-.34-1.749l2.657-6.306c.062-.121.114-.227.151-.312.2-.355.659-.545 1.377-.562h8.137l.734-1.7h-11.102l-3.941 9.291a3.5 3.5 0 01-.644 1.03 2.958 2.958 0 01-2.082.53h-8.691c-1.105.008-1.378-.613-.825-1.862l7.018-16.583a5.673 5.673 0 01.432-.812zm51.341-.639h29.8a.755.755 0 01.695.339.841.841 0 01.015.8l-2.7 6.434a1.847 1.847 0 01-.69.8 1.727 1.727 0 01-.979.339h-15.862a.437.437 0 00-.407.263l-.776 1.848a.441.441 0 00.425.6h12.62a.755.755 0 01.695.339.841.841 0 01.015.8l-2.682 6.404a1.848 1.848 0 01-.69.8 1.727 1.727 0 01-.979.339h-13.271a.437.437 0 00-.407.263l-3.407 8.118a1.843 1.843 0 01-.69.8 1.728 1.728 0 01-.979.339h-12.18a.753.753 0 01-.7-.339.84.84 0 01-.015-.8L169.783 1.48a1.845 1.845 0 01.69-.8 1.728 1.728 0 01.979-.339m41.767 12.038l-2.854 6.8a2.33 2.33 0 00.163 2.678 3.987 3.987 0 002.977.935 7.387 7.387 0 003.268-.595 8.631 8.631 0 002.3-1.743 3.117 3.117 0 012.143-1.148h10.103a.662.662 0 01.6.288.705.705 0 01.017.685q-1.726 4.114-7.273 7.52a25.457 25.457 0 01-6.617 2.72 32.535 32.535 0 01-8.484 1.039 20.74 20.74 0 01-7.885-1.336 7.343 7.343 0 01-4.358-4.383q-1.109-3.046.749-7.473l2.171-5.173a19.413 19.413 0 015.532-7.5q6.889-5.694 17.418-5.694a22.116 22.116 0 017.238 1.04 9.384 9.384 0 014.334 2.72 6.987 6.987 0 01.962 7.519 1.571 1.571 0 01-.592.686 1.5 1.5 0 01-.846.287h-10.108q-1.03 0-1.18-1.147a2.669 2.669 0 00-.837-1.743 4.49 4.49 0 00-2.769-.595 7.6 7.6 0 00-3.762.935 5.368 5.368 0 00-2.41 2.678"/></g></svg>