<svg xmlns="http://www.w3.org/2000/svg" width="469.076" height="62.622" viewBox="0 0 469.076 62.622"><defs><clipPath id="a"><path fill="#fff" d="M0 0h469.076v62.622H0z"/></clipPath></defs><g clip-path="url(#a)" fill="#fff"><path d="M55.343.811h18.7c2.463.015 3.1 1.382 1.893 4.07l-12.6 29.621a7.821 7.821 0 01-1.277 2.107c-.69.661-2.058.992-4.131.992H40.682c-1.788-.15-2.343-1.382-1.7-3.7L45.4 18.837l-42.974.044a5.4 5.4 0 01-1.337-.314q-1.759-.989-.677-3.468l5.271-12.5c.124-.24.226-.45.3-.619C6.388 1.274 7.29.899 8.717.864L55.341.82zM17.355 22.096a4.007 4.007 0 013.514-1.307h17.845c2.434.015 3.034 1.382 1.832 4.07l-12.66 30.117a7.725 7.725 0 01-1.336 2.044c-.69.7-2.043 1.051-4.07 1.051H5.248c-1.818-.2-2.388-1.427-1.7-3.7L16.5 23.702a9.916 9.916 0 01.857-1.611zm61.586-2.285a4.008 4.008 0 013.514-1.308h17.779c2.464.015 3.1 1.382 1.893 4.07L88.443 54.932a9.509 9.509 0 01-1.277 2.043c-.69.706-2.058 1.051-4.13 1.051H65.797a1.276 1.276 0 01-.481-.045q-2.681-.248-1.216-3.649l13.984-32.91a7.38 7.38 0 01.841-1.612zm34.653-17.754A4.007 4.007 0 01117.107.75h17.784c2.464.015 3.1 1.382 1.893 4.07l-14.9 35.134h16.447a2.486 2.486 0 01.977.165c1.1.45 1.337 1.4.737 2.851l-5.514 13.087a2.588 2.588 0 01-.421.555c-.646.916-1.908 1.364-3.77 1.364h-21.675l-15.725.037c-1.818-.211-2.388-1.442-1.7-3.711l21.497-50.637a6.718 6.718 0 01.857-1.608M211.167.661h20.7c.6.015.946.372 1.036 1.037a2.4 2.4 0 01-.977 1.923l-31.423 25.492c.24.372.481.811.736 1.307l9.918 23.4c1.216 2.689.586 4.041-1.878 4.091H191.49a4.125 4.125 0 01-3.53-1.216 9.048 9.048 0 01-.916-1.611l-4.751-11.269-15.17 12.348a7.005 7.005 0 01-2.553 1.667 9.436 9.436 0 01-1.758.124h-19.974q-2.072.022-1.937-1.216a2.591 2.591 0 011.036-1.742l44.7-36.3-26.282.03a2.027 2.027 0 01-2.253-1.612 3.371 3.371 0 01.241-2.163l5.326-12.51a2.372 2.372 0 011.4-1.488 7.512 7.512 0 011.577-.255L211.02.661h.15zm27.159 1.276A4.007 4.007 0 01241.84.63l45.709-.045h18.76c2.434.015 3.034 1.383 1.832 4.07l-21.192 50.02a6.78 6.78 0 01-1.277 2.107c-.691.706-2.058 1.051-4.131 1.051h-17.244a2.742 2.742 0 00-.481-.045q-2.681-.314-1.216-3.649l5.993-14.133h-14.808a3.091 3.091 0 01-1.336-.3q-1.757-.991-.675-3.471l5.272-12.512c.124-.241.226-.45.3-.62.405-.7 1.307-1.081 2.733-1.116h16.145l1.457-3.365h-22.035l-7.81 18.43a6.947 6.947 0 01-1.277 2.043c-.69.706-2.058 1.051-4.131 1.051h-17.245c-2.193.015-2.734-1.216-1.638-3.7L237.47 3.545a11.239 11.239 0 01.857-1.612zM340.204.669h59.133a1.5 1.5 0 011.379.672 1.67 1.67 0 01.03 1.6l-5.358 12.766a3.67 3.67 0 01-1.369 1.6 3.429 3.429 0 01-1.943.672h-31.481a.867.867 0 00-.808.521l-1.539 3.667a.876.876 0 00.844 1.188h25.042a1.5 1.5 0 011.379.672 1.669 1.669 0 01.03 1.6l-5.323 12.668a3.668 3.668 0 01-1.369 1.6 3.427 3.427 0 01-1.943.672h-26.334a.868.868 0 00-.808.521l-6.762 16.104a3.658 3.658 0 01-1.369 1.6 3.427 3.427 0 01-1.943.672h-24.165a1.494 1.494 0 01-1.379-.672 1.665 1.665 0 01-.03-1.6l22.769-54.257a3.663 3.663 0 011.369-1.6 3.429 3.429 0 011.943-.672m82.888 23.901l-5.663 13.495q-1.451 3.459.323 5.314t5.907 1.855a14.658 14.658 0 006.485-1.181 17.127 17.127 0 004.562-3.458q2.21-2.277 4.252-2.278h20.056a1.314 1.314 0 011.2.572 1.4 1.4 0 01.033 1.359q-3.426 8.163-14.432 14.921a50.51 50.51 0 01-13.13 5.4 64.558 64.558 0 01-16.836 2.061 41.151 41.151 0 01-15.647-2.652 14.57 14.57 0 01-8.653-8.7q-2.2-6.044 1.487-14.829l4.308-10.265a38.52 38.52 0 0110.977-14.872Q421.974 0 442.866 0a43.884 43.884 0 0114.365 2.064q5.912 2.061 8.6 5.4 5.333 6.757 1.91 14.919a3.115 3.115 0 01-1.174 1.361 2.982 2.982 0 01-1.679.57h-20.057q-2.043 0-2.341-2.276a5.294 5.294 0 00-1.66-3.458q-1.367-1.18-5.499-1.18a15.082 15.082 0 00-7.464 1.855 10.652 10.652 0 00-4.783 5.313"/></g></svg>