<svg xmlns="http://www.w3.org/2000/svg" width="371.688" height="83.485" viewBox="0 0 371.688 83.485"><defs><clipPath id="a"><path class="a" d="M0 0h371.687v83.485H0z"/></clipPath><style>.a{fill:#03c7b1}</style></defs><g clip-path="url(#a)"><path class="a" d="M251.687 49.703c-5.571 13.232-6.566 34.922 11.442 18.8 4.378-3.583 6.666 6.268 3.581 9.152-5.77 5.377-15.023 9.056-20.992 1.7-5.274-6.666-5.074-17.311-3.484-25.272 2.09-9.848 6.765-18.8 12.438-27.168a103.458 103.458 0 00-32.936 44.278c-.6 1.59-2.587 3.583-4.279 1.89-3.881-3.881-2.688-9.353-2.189-14.228.8-6.07 1.99-12.04 3.283-18.607a81.339 81.339 0 01-16.714 21.791c-9.551 8.356-27.857 14.923-36.712 1.889-12.333-18.112 8.36-44.872 26.568-49.242 5.571-1.394 12.936-1.194 15.62 4.876 2.984 6.963-2.689 13.032-7.065 17.908a81.259 81.259 0 01-17.512 13.829c-2.189 1.394-3.085-4.078-1.491-5.377a88.275 88.275 0 0014.923-13.134c2.688-3.182 9.749-9.751 1.491-10.446-12.735-1.1-33.926 18.606-29.749 32.532 2.091 5.473 8.065 7.263 13.431 6.866 11.841-.7 20.8-10.347 27.063-19.5 3.581-5.173 6.864-10.646 10.147-15.919 3.482-5.571 6.666-11.745 10.944-16.615 2.786-3.283 6.666 1.592 5.871 3.581a139.952 139.952 0 00-12.231 38.4 113.089 113.089 0 0148.152-45.461c3.781-2.09 4.975 5.97 3.283 8.066-8.656 11.037-17.4 22.385-22.883 35.419"/><path class="a" d="M297.143 47.089a16.257 16.257 0 01-14.824 5.971c-4.774 6.467-13.725 14.625-19 5.97-5.377-8.656 1.79-20 8.756-25.769 1.99-3.98 6.566-9.056 11.64-9.353 5.172 0 5.77 6.368 5.571 10.446a39.266 39.266 0 01-3.281 12.24 14.151 14.151 0 008.557-4.477c2.09-2.389 3.979 3.184 2.585 4.974m-20.793 4.079c-2.587-.8-4.578-3.085-5.274-6.864-.991 1.989-5.77 11.442-.7 10.446a14.329 14.329 0 005.97-3.581m5.571-6.666c1.89-3.781 5.173-11.745 4.079-14.328-.8-1.691-3.085-1.293-5.572 1.592-6.168 6.965-4.278 12.238.8 14.127.4.2.4-.8.7-1.392"/><path class="a" d="M339.622 14.456c-7.463.6-15.122.2-22.684.3h-.7c-6.267 11.143-12.436 22.883-15.424 36.217-3.781 17.113 5.471 8.954 10.746-6.169a1.743 1.743 0 013.382.7 64.352 64.352 0 01-8.856 16.714c-2.786 3.581-8.656 6.765-12.138 1.7-3.283-4.578-2.786-10.646-1.293-16.517 2.885-10.744 7.562-20.894 13.532-32.435a117.585 117.585 0 01-11.839-.2c-1.1-.1-1.1-2.689-.1-2.786 4.669-.4 9.153-.4 13.83-.4a.348.348 0 00.1-.2 38.041 38.041 0 015.97-8.657c3.484-3.679 7.86-.2 7.263 2.389a69.018 69.018 0 01-3.581 6.567c7.164-.1 14.526-.5 21.689-.1 1.295 0 1.394 2.885.1 2.885"/><path class="a" d="M344.89 47.089a16.257 16.257 0 01-14.824 5.971c-4.774 6.467-13.726 14.625-19 5.97-5.377-8.656 1.79-20 8.756-25.769 1.99-3.98 6.566-9.056 11.64-9.353 5.172 0 5.77 6.368 5.571 10.446a39.31 39.31 0 01-3.283 12.24 14.15 14.15 0 008.557-4.477c2.09-2.389 3.979 3.184 2.585 4.974M324.1 51.169c-2.587-.8-4.577-3.085-5.274-6.864-.99 1.989-5.77 11.442-.7 10.446a14.328 14.328 0 005.97-3.581m5.571-6.666c1.89-3.781 5.173-11.745 4.079-14.328-.8-1.691-3.085-1.293-5.572 1.592-6.168 6.965-4.277 12.238.8 14.127.4.2.4-.8.7-1.392M45.628 24.48a102.905 102.905 0 00-5.348 10.06c-1.633 3.879.925 3.873 4.769 2.04 6.971-3.412 15.737-11.155 17.98-18.28 4.609-14.914-15.167-9.074-23.793-4.382C26.683 20.659 17 30.782 11.876 41.942 7.8 50.7 5.64 63.23 15.752 69.487c12.752 7.9 34.474-11.471 39.273-19.854 1.223-2.122 4.171-.859 5.3.265a4.445 4.445 0 01-.013 6.15c-5.861 8.813-13.89 17.028-25.612 21-10.2 3.246-20.72 1.241-27.211-4.821C-12.186 54.291 10.5 19.1 34.092 6.324c8.056-4.367 20.365-8.566 29.159-4.958 17.375 7.367 2.612 30.721-9 38.944-6.437 4.763-17.233 8.858-21.8 1.568-4.245-6.942 1.189-17.853 8.259-23.268 3.638-2.83 5.813 4.016 4.916 5.867"/><path class="a" d="M94.105 50.803c-2.287 5.472-5.272 12.037-9.848 16.018-4.279 3.679-11.541 2.587-11.143-5.173-6.269 8.655-16.718 8.155-19.309-.701-3.287-10.352 7.467-23.481 18.8-27.461 3.382-1.094 8.065-2.688 11.442-1.094 1.989.7 4.669 4.18 3.283 6.267a86.315 86.315 0 00-9.154 16.715c-1.293 3.581-.5 9.352 4.279 5.77a33.007 33.007 0 008.464-11.441c1.394-3.185 3.98-1.1 3.184 1.094M80.075 39.356c-6.666 2.09-18.606 8.357-19.1 16.914a3.513 3.513 0 003.982 3.781c6.666-1.491 10.645-15.521 15.122-20.694"/><path class="a" d="M111.212 11.698c2.09-1.295 7.163 2.389 5.869 4.67-5.57 10.146-12.934 23.381-18.505 36.314-3.581 8.769-2.983 17.021 1.394 12.448 2.585-2.488 8.066-12.836 10.046-16.616 1.394-2.486 3.781.6 3.085 2.389-2.084 5.567-7.164 17.606-12.838 20.293a5.139 5.139 0 01-3.581.4 8.14 8.14 0 01-5.571-4.777c-2.786-5.77-1.79-12.536.6-18.8a162.9 162.9 0 0116.316-32.839 12.276 12.276 0 013.184-3.482m22.091 1.183a92.538 92.538 0 01-3.075 8.842c-1.163 2.139-5.083 2.547-6.509.283-1.283-2.316.72-5.155 1.583-7.805a14.609 14.609 0 012.577-4.953c2.547-1.5 6.085 1.343 5.418 3.637m14.372 26.057c-1.324 3.4-2.689 4.67-4.4 4.546a1.456 1.456 0 01-1.4-1.589c.235-1.415-.566-5.077-5.136-5.094-6.8-.023-11.535 2.287-13.3 7.9-1.743 5.538 14.773 6.54 14.038 14.73-.456 5.094-7.243 11.138-15.589 11.138-9.033 0-10.3-7.658-9.323-10.922 1.174-3.928 3.962-4.679 4.989-4.679 1.145 0 1.712 1.617 1.39 1.981-2.938 3.341-.849 8.066 3.962 7.783 2.056-.123 6.767-1.74 7.876-5.333 1.49-4.831-15.889-6.474-15.409-14 .658-10.33 14.106-16.646 24.6-14.533 7.055 1.415 8.721 5.444 7.7 8.066m223.38-9.257a4.651 4.651 0 00-4.123-1.67c-1.738 0-6.195.749-13.1 6.972 1.372-2.749 1.634-4.457.886-5.619-.707-1.1-2.2-1.528-4.685-1.351a3.113 3.113 0 00-2.277.886.74.74 0 00-.151.467c0 .014.011 1.578-2.168 5.625l-11.432 21.3c-.41.767-.811 1.462-1.172 2.09-1.238 2.154-2.056 3.574-1.415 4.67.475.821 1.572 1.153 3.785 1.153a10.084 10.084 0 004.155-.7.723.723 0 00.388-.682c0-.014-.052-1.438 1.946-5.185 4.971-9.3 8.644-13.646 12.959-17.635 3.506-3.243 5.179-3.924 5.963-3.924a1.647 1.647 0 01.364.037 1.2 1.2 0 01-.112.566 11.3 11.3 0 01-2.028 3.245.695.695 0 00.275 1.132 10.306 10.306 0 003.216.46c3.688 0 7.333-2.936 8.865-7.14a5 5 0 00-.125-4.695"/></g></svg>