<svg xmlns="http://www.w3.org/2000/svg" width="26" height="26" viewBox="0 0 26 26"><g data-name="Group 280" transform="translate(-270 -622.625)"><circle data-name="Ellipse 21" cx="13" cy="13" r="13" transform="translate(270 622.625)" fill="#266fbf"/><path d="M278.5 642.623a1.707 1.707 0 01-1.255-.515 1.707 1.707 0 01-.515-1.255v-9.122a1.708 1.708 0 01.515-1.255 1.708 1.708 0 011.255-.515h.555v-1.335h1.553v1.335h4.908v-1.335h1.553v1.335h.555a1.708 1.708 0 011.255.515 1.708 1.708 0 01.515 1.255v9.122a1.707 1.707 0 01-.515 1.255 1.707 1.707 0 01-1.255.515zm0-1.77h9.122v-6.564H278.5z" fill="#fff"/></g></svg>