<svg xmlns="http://www.w3.org/2000/svg" width="26" height="26" viewBox="0 0 26 26"><g data-name="Group 279" transform="translate(-270 -581.625)"><circle data-name="Ellipse 20" cx="13" cy="13" r="13" transform="translate(270 581.625)" fill="#266fbf"/><path d="M288.201 601.475a10.156 10.156 0 01-4.167-.917 12.634 12.634 0 01-3.765-2.606 12.464 12.464 0 01-2.622-3.773 10.212 10.212 0 01-.917-4.175 1.183 1.183 0 01.338-.861 1.142 1.142 0 01.853-.346h2.59a1.521 1.521 0 01.965.29 1.438 1.438 0 01.5.837l.4 1.914a1.809 1.809 0 01-.008.853 1.306 1.306 0 01-.426.627l-1.657 1.448a8.007 8.007 0 00.6.845 9.9 9.9 0 00.812.877 10.6 10.6 0 00.8.732 6.1 6.1 0 00.772.539l1.625-1.577a1.644 1.644 0 01.716-.41 1.858 1.858 0 01.861-.008l1.786.4a1.656 1.656 0 01.845.5 1.337 1.337 0 01.282.885v2.719a1.168 1.168 0 01-.346.861 1.149 1.149 0 01-.837.346z" fill="#fff"/></g></svg>