<svg xmlns="http://www.w3.org/2000/svg" width="681" height="681" viewBox="0 0 681 681"><defs><style>.a{opacity:.495}.b{fill:#fff}.c{fill:#7ed0d1}.d{fill:#4ebfc0}.f{fill:#a6a7a7}.g{fill:#474645}.h{fill:#737374}.i{fill:#393636}.k{fill:#b8e1f1}.l{fill:#6a6a6a}.m{fill:#9ec3d0}.n{fill:#d1ecfa}.p{fill:#e8644d}</style></defs><g class="a" transform="translate(-876 -1010)"><circle class="b" cx="241.5" cy="241.5" r="241.5" transform="translate(970 1109)"/><path class="c" d="M1211.5 1110a242.282 242.282 0 00-48.47 4.886 239.176 239.176 0 00-85.995 36.187 241.206 241.206 0 00-87.135 105.814 239.28 239.28 0 00-14.014 45.143 242.854 242.854 0 000 96.94 239.176 239.176 0 0036.187 85.995 241.206 241.206 0 00105.814 87.135 239.28 239.28 0 0045.143 14.013 242.854 242.854 0 0096.94 0 239.176 239.176 0 0085.995-36.187 241.206 241.206 0 0087.135-105.813 239.28 239.28 0 0014.013-45.143 242.854 242.854 0 000-96.94 239.176 239.176 0 00-36.187-85.995 241.206 241.206 0 00-105.813-87.135 239.28 239.28 0 00-45.143-14.014 242.282 242.282 0 00-48.47-4.886m0-1c133.377 0 241.5 108.123 241.5 241.5S1344.877 1592 1211.5 1592 970 1483.877 970 1350.5s108.123-241.5 241.5-241.5z"/></g><g class="a" transform="translate(-876 -1010)"><circle class="b" cx="340.5" cy="340.5" r="340.5" transform="translate(876 1010)"/><path class="c" d="M1216.5 1011a342.02 342.02 0 00-68.422 6.9 337.635 337.635 0 00-121.395 51.081 340.494 340.494 0 00-123 149.371 337.8 337.8 0 00-19.783 63.726 342.823 342.823 0 000 136.844 337.635 337.635 0 0051.081 121.395 340.494 340.494 0 00149.371 123 337.8 337.8 0 0063.726 19.783 342.823 342.823 0 00136.844 0 337.635 337.635 0 00121.395-51.083 340.494 340.494 0 00123-149.371 337.8 337.8 0 0019.783-63.724 342.823 342.823 0 000-136.844 337.635 337.635 0 00-51.083-121.395 340.494 340.494 0 00-149.371-123 337.8 337.8 0 00-63.724-19.783 342.02 342.02 0 00-68.422-6.9m0-1c188.053 0 340.5 152.447 340.5 340.5S1404.553 1691 1216.5 1691 876 1538.553 876 1350.5s152.447-340.5 340.5-340.5z"/></g><path class="d" d="M315.083 509.934a1.591 1.591 0 00-1.279.254c-.184.21 0 .656.327 1.364a5.669 5.669 0 01.656 3.757c-.43 1.838-1.984 2.958-3.118 3.775-.683.493-1.39 1-1.309 1.327.038.151.276.236.85.407a9.015 9.015 0 012.5 1.1 10.343 10.343 0 012.865 2.9l-.027-.128a9.567 9.567 0 01.043-5.2 6.128 6.128 0 01.863-1.663 5.7 5.7 0 00.9-1.861c.322-1.1.808-2.755.042-4.08a4.516 4.516 0 00-3.315-1.954m-22.697 65.917l-.186-.011c-.063 0-.378-.022-.868-.022-2.257 0-8.216.375-10.22 4.21a7.354 7.354 0 00-.6 5.057.883.883 0 00.374.523c.371.141 1.387-.424 3.028-2.518l.119-.151.193-.016a10.717 10.717 0 003.4-.85c4.394-1.916 6.729-6.614 6.906-7.942a12.689 12.689 0 00-2.007 1.595zm-100.916-33.931a6.169 6.169 0 00-3.133-1.673 18.935 18.935 0 014.976 9.44 18.564 18.564 0 01.032 6.978 8.177 8.177 0 012.817 1.535 17.435 17.435 0 003.219 1.949c3.024 1.339 6.7 1.448 10.918.355a8.6 8.6 0 00-4.284-1.987 7.257 7.257 0 01-4.4-2.3c-1.7-1.948-2.882-5.165-1.843-7.549a4.477 4.477 0 012.548-2.325 18.654 18.654 0 01-10.85-4.423"/><path class="d" d="M231.182 494.19l-11.309-.87c.04 1.509-.871 2.452-2.23 3.831a27.061 27.061 0 00-4 4.9 19.8 19.8 0 00-2.642 6.222 10.885 10.885 0 01-2.692 5.315 16.72 16.72 0 01-.484.508l-.36 2.966-1.724 4.31 5.2 6.936 7.914 3.513-.18.4-8.019-3.564-5.42-7.227 1.806-4.514.278-2.34c-1.627 1.525-4.571 3.749-7.928 3.749a7.375 7.375 0 01-1.928-.255 5.321 5.321 0 01-2.847-2.457c-.7-1-1.312-1.871-2.425-1.962-1.092-.07-2.792 1.84-3.707 2.875-.2.222-.362.409-.5.554l.868.653 3.622 5.433-3.6 5.394-.877 5.264v5.947c1.544.05 2.523.821 3.74 1.793a18.97 18.97 0 004.1 2.644 19.2 19.2 0 007.45 1.737c.134-.049.267-.1.4-.146 1.755-.63 3.571-1.281 4.961-3.4.179-.272.338-.551.5-.833a9.022 9.022 0 012.246-2.808 9.135 9.135 0 012.989-1.589c.229-.082.45-.161.663-.248a12.208 12.208 0 006.807-9.366 7.993 7.993 0 00-.575-3.616 6.508 6.508 0 01-.294-4.435 5.144 5.144 0 011.264-2.228 7.192 7.192 0 001.409-2.245 10.529 10.529 0 00.8-4.55 4.433 4.433 0 011.062-3.553 4.579 4.579 0 012.154-1.195 3.922 3.922 0 002.24-1.425 5.565 5.565 0 00.7-1.2 3.5 3.5 0 011.152-1.538 3.689 3.689 0 012.27-.7 3.839 3.839 0 001.367-.24 5.678 5.678 0 002.779-3.75 5.425 5.425 0 00-.316-4.436 2.476 2.476 0 00-.657-.623c-.593.411-2.119 1.088-5.994 2.348zm-75.833 88.535l3.553-4.441.091-.01 7.139-.794 8.094-11.818a12.233 12.233 0 01-1.476-1.979 8.719 8.719 0 00-1.931-2.284c-3.456-3.074-9.178-6.061-13.941-4.382-1.847.654-2.9 1.828-4.238 3.317a35.084 35.084 0 01-2.769 2.835 31.534 31.534 0 01-15.151 7.134l-.816.119a51 51 0 01-.172.393c-.443 1-.86 1.945-.455 2.571.239.368.636.458 1.265.576a3.28 3.28 0 012.255 1.166 3.039 3.039 0 01.562 2.063 2.38 2.38 0 00.337 1.5c.422.62 1 .734 1.883.906a9.56 9.56 0 012.366.713 9.421 9.421 0 014.513 4.843z"/><path class="d" d="M134.101 569.947l.544-.08a31.094 31.094 0 0014.932-7.026 34.753 34.753 0 002.735-2.8c1.379-1.535 2.467-2.747 4.42-3.437 4.464-1.582 9.7.766 13.283 3.56l-.007-.02c5.637-2.023 7.852-5.374 8.717-7.831a6.388 6.388 0 00.34-2.306 7.222 7.222 0 01.549-3.014c1.145-2.819 4.188-6.993 7.95-7.2v-5.999l.84-5.057-14.8 1.741-.039-.01-7.134-1.79-9.682-5.284h-.207l-.316 1.263-5.053-2.021-2.533-5.065-2.749 1.375 2.5 5.04.7 4.207 1.591-2.387 5.04 11.088h-3.248l-7.8 3.469-1.4 1.4 1.457 1.457 5.052 4.038-.814.239a5.989 5.989 0 01-3.819-.009 4.431 4.431 0 01-1.927-1.414 4.144 4.144 0 00-1.63-1.249 4.6 4.6 0 00-2.049-.317 3.712 3.712 0 01-2.456-.61 3.451 3.451 0 01-1.019-1.067 1.591 1.591 0 00-.7-.674 3.388 3.388 0 00-3.868.749 2.415 2.415 0 00-.333 1.578 2.488 2.488 0 01-.6 2.017 2.933 2.933 0 01-2.026.7 3.752 3.752 0 00-.5.051 5.147 5.147 0 00.9.846c.867.712 1.849 1.517 1.754 2.553s-1.209 1.52-2.284 1.981c-.974.418-1.98.85-2.15 1.614-.1.457.158.769.755 1.431a10.2 10.2 0 011.87 2.713 9.84 9.84 0 01.852 4.228 3.4 3.4 0 00.823 2.719 3.219 3.219 0 001.8.809 2.315 2.315 0 011.822 1.06 3.12 3.12 0 01-.076 2.736m36.182 31.582l1.778-6.222-.84-4.195h-4.359l-1.893-2.84 1.79-6.264v-4.142l-7.629.848-3.528 4.41-9.007 2.457c.031.107.073.221.094.319a1.478 1.478 0 01-.174 1.3c-.327.379-.785.283-1.229.188a3.624 3.624 0 00-1.664-.046 4.1 4.1 0 00-2.018 1.26c-.147.141-.293.28-.442.412a7.429 7.429 0 01-4.641 1.727c-1.1.106-1.891.183-2.372.853-.734 1.022-.3 2.735.025 3.665a9.107 9.107 0 002.076 3.5l.017-.089a2.132 2.132 0 01.812-1.506c1.094-.756 3.143-.277 4.138.973a3.071 3.071 0 01.586 1.288c.039.163.081.332.126.351.208.089.773-.411 1.148-.742.7-.616 1.488-1.311 2.35-1.044a2.011 2.011 0 011.178 2.32c-.2.685-.824.9-1.371 1.092a2.658 2.658 0 00-1.359.823c-.714.92-.647 2.475-.077 2.92.285.223.705.124 1.271-.038a3.1 3.1 0 01.816-.16.83.83 0 01.6.227c.7.681-.127 1.934-1.784 4.434a46.33 46.33 0 00-4.311 7.563c-2.2 5.227-3.762 14.3-.133 17.184a8.378 8.378 0 004.105 1.311c1.92.272 3.905.554 4.862 2.372a4.5 4.5 0 01.469 1.722c.054.484.088.663.25.757.644.384 2.311-1.014 4.416-2.78.893-.749 1.906-1.6 3.052-2.5 4.774-3.745 9.284-7.286 13.649-6.279a5.514 5.514 0 011.165.407 5.735 5.735 0 001.478.475c2.307.462 6.212.426 7.507-1.576a2.4 2.4 0 00.358-1.446 3.847 3.847 0 01.516-2.076 4.063 4.063 0 011.7-1.6l-6.386-5.612zm11.519-89.081l5.82 4.378c.139-.144.317-.346.524-.58 1.071-1.212 2.674-3.027 3.967-3.027h.108c1.32.107 2.048 1.146 2.751 2.149a4.9 4.9 0 002.6 2.284c4.793 1.294 9.171-3.01 10.4-4.361a10.392 10.392 0 002.592-5.132 20.2 20.2 0 012.7-6.344 27.5 27.5 0 014.063-4.974c1.4-1.417 2.241-2.274 2.1-3.736-.148-1.536-1.259-2.281-2.545-3.146a9.93 9.93 0 01-3.083-2.851h-12.234a6.432 6.432 0 01-1.557 1.45l-1.888 1.837-4.317 1.727-3.582 4.477-3.926.437-1.621 3.238v1.939l-2.994 1.5h.117z"/><path class="d" d="M194.667 595.853a28.761 28.761 0 01-1.231-3.005c-.9-2.45-1.744-4.764-3.971-5.743a4.632 4.632 0 00-1.125-.327 4.051 4.051 0 01-1.556-.571c-3.2-1.922-3.63-6.184-3.647-6.364a5.718 5.718 0 01.541-3.214 3.176 3.176 0 00.347-2.079c-.294-1.667-1.559-2.492-3.475-3.74a32.773 32.773 0 01-5.312-4.1c-.267-.258-.493-.49-.7-.711l-7.824 11.424.493-.055-.008 4.733-1.742 6.1 1.648 2.472h4.488l.931 4.657-1.763 6.17 7.029 15.814 6.432 5.628c.322-.143.651-.265.977-.384a10.485 10.485 0 001.489-.63c2.442-1.342 3.043-4.169 3.624-6.9.586-2.758 1.139-5.363 3.494-6.39a5.42 5.42 0 012.971-.276 4.08 4.08 0 003.151-.568 3.508 3.508 0 001.312-1.66 5.116 5.116 0 011.3-1.847 5.555 5.555 0 01.733-.537c-4.108-2.056-7.008-4.7-8.6-7.883m-28.051-67.589l7.014 1.753 14.9-1.753 3.4-5.1-3.438-5.157-7.139-5.353v-8.8l-2.521 1.261-1.24-1.241v-1.511h-4.419v1.16l-2.08-1.04-2.542 3.34-2.541 1.7-1.763 4.4-4.7 3.764-2.624-.875-2.192 2.194 2.551 3.4-.638 2.55.263.007z"/><path class="d" d="M199.204 560.552a17.823 17.823 0 01-3.3-1.994c-1.291-.928-2.315-1.662-3.671-1.528-3.79.369-5.791 6.259-6.007 6.928a6.856 6.856 0 00.145 3.877c.337 1.406.655 2.732-.165 4.132a5.392 5.392 0 01-1.845 1.847l-.233-.375a4.968 4.968 0 001.7-1.694c.73-1.246.431-2.49.116-3.806a7.2 7.2 0 01-.136-4.116c.224-.7 2.313-6.837 6.384-7.234a3.488 3.488 0 01.719.007 18.145 18.145 0 00-.029-6.824 18.59 18.59 0 00-5.18-9.551c-3.606.116-6.561 4.194-7.675 6.935a6.856 6.856 0 00-.516 2.853 6.849 6.849 0 01-.365 2.449c-.884 2.509-3.126 5.916-8.741 8.006.247.2.485.4.713.606a9.212 9.212 0 012.013 2.381 13.289 13.289 0 002.419 2.936 32.448 32.448 0 005.247 4.052c1.94 1.264 3.342 2.177 3.668 4.035a3.612 3.612 0 01-.376 2.331 5.336 5.336 0 00-.506 3c.016.172.426 4.219 3.434 6.027a3.582 3.582 0 001.408.514 5.031 5.031 0 011.222.358c2.4 1.055 3.279 3.455 4.208 6a28.25 28.25 0 001.211 2.958c1.587 3.165 4.507 5.8 8.676 7.828 1.982-1.007 4.395-.867 6.251-.741a5.7 5.7 0 002.165-.057c0-.2-.71-.784-1.093-1.1-.9-.737-1.824-1.5-1.576-2.408a1.543 1.543 0 01.79-.9 7.444 7.444 0 015.065-.295 6.291 6.291 0 012.974 1.788 2.345 2.345 0 001.381.854c1.2.131 2.035-1.154 3.523-3.624a36.254 36.254 0 015.858-7.76 61.561 61.561 0 0110.7-8.029l.784-.461c1.948-1.139 3.355-1.963 4.366-3.8 1.3-2.362 1.642-5.914.079-7.436a3.027 3.027 0 00-1.685-.75 2.559 2.559 0 01-1.925-1.108 3.49 3.49 0 01-.061-2.87 3.333 3.333 0 00.046-2.467 3.81 3.81 0 00-2.4-1.552c-4.268-1.355-13.693-.459-16.282 5.076-1.043 2.23-.829 4.9-.687 6.672.115 1.427.183 2.289-.513 2.425-.556.111-.89-.449-1.313-1.156-.377-.629-.892-1.49-1.407-1.49h-.011c-.268.006-.5.248-.841.646a2.59 2.59 0 01-1.8 1.124 2.859 2.859 0 01-2.137-1.045c-.836-1.015-.607-2.212-.366-3.479a11.462 11.462 0 00.264-2.116c.015-2.918-1.924-5.307-3.212-6.572-4.435 1.2-8.3 1.106-11.482-.3m92.871 14.386c-1.546-.078-9.212-.164-11.739 4.672a8.26 8.26 0 00-.647 5.775 1.64 1.64 0 00.875 1.036 1.186 1.186 0 00.445.085c.885 0 2.034-.9 3.489-2.727a11.548 11.548 0 003.488-.9c4.738-2.065 7.2-6.969 7.421-8.667a1.024 1.024 0 00-.24-.934c-.42-.337-1.044-.172-3.093 1.664m-4.442 7.127a10.7 10.7 0 01-3.4.85l-.193.016-.119.152c-1.641 2.094-2.658 2.659-3.028 2.517a.883.883 0 01-.373-.523 7.355 7.355 0 01.6-5.057c2-3.835 7.963-4.211 10.22-4.211.489 0 .8.018.867.022l.186.011.138-.124a12.656 12.656 0 012.007-1.595c-.177 1.328-2.512 6.026-6.906 7.942m27.544-73.027a2.345 2.345 0 00-2.031.552c-.568.651-.2 1.458.188 2.313a4.8 4.8 0 01.6 3.188c-.354 1.516-1.7 2.482-2.774 3.26-1.007.725-1.876 1.352-1.65 2.258.164.656.762.834 1.455 1.042a8.068 8.068 0 012.274.993 9.555 9.555 0 012.625 2.67c.376.526.685.959 1.083.959a.629.629 0 00.243-.052c.552-.229.418-.86.233-1.734a8.67 8.67 0 01.016-4.729 5.309 5.309 0 01.756-1.448 6.51 6.51 0 001.02-2.11c.342-1.166.914-3.118-.042-4.772a5.369 5.369 0 00-4-2.392m3.188 6.915a5.685 5.685 0 01-.9 1.86 6.118 6.118 0 00-.863 1.663 9.561 9.561 0 00-.043 5.2l.027.128a10.345 10.345 0 00-2.865-2.9 9.024 9.024 0 00-2.5-1.1c-.575-.171-.812-.256-.85-.407-.081-.325.626-.834 1.309-1.327 1.134-.818 2.688-1.938 3.118-3.775a5.669 5.669 0 00-.656-3.757c-.322-.709-.51-1.154-.327-1.364a1.593 1.593 0 011.279-.254 4.518 4.518 0 013.315 1.955c.766 1.325.28 2.983-.042 4.08m31.54-99.468c-1.7.519-4.6 1.737-5.009 4.079a5.3 5.3 0 00.847 3.27 15.011 15.011 0 003.278 4.153 6.137 6.137 0 002.252-.769c.527-.4.55-1.018.55-2.266a17.423 17.423 0 01.166-2.758 13.678 13.678 0 011.435-4.273c.464-.941.621-1.321.418-1.592-.238-.318-1.063-.72-3.937.157m-2.953 25.72a3.257 3.257 0 001.547-1.573 6.483 6.483 0 00.252-5.067 3.661 3.661 0 00-1.8-2.276 3.594 3.594 0 00-2.161.043c-.631.146-1.285.3-1.593-.229-.3-.509.105-1 .535-1.528a4.394 4.394 0 001.176-2.285c.143-1.308-.588-2.881-1.423-3.059-.444-.094-.869.321-1.881 1.354-.55.56-1.234 1.26-2.157 2.084a18.624 18.624 0 01-3.186 2.389 2.627 2.627 0 00-1.156 1.052c-1.11 1.815-.792 3.988-.536 5.734.227 1.549.406 2.772-.515 3.274-.614.336-1.189.023-1.745-.28a3.305 3.305 0 00-1.97-.552c-1.031.089-1.571.727-2.319 1.611a10.29 10.29 0 01-1.887 1.848c-2.347 1.682-5.065 1.465-7.049 1.31-1.248-.1-2.325-.185-2.544.287-.269.581.438 1.821 1.121 3.02.889 1.557 1.9 3.325 1.566 4.854a6.888 6.888 0 01-.337 1.068 7.088 7.088 0 01-1.894 2.534 9.373 9.373 0 01-1.249.96 15.84 15.84 0 01-4.827 1.972 38.667 38.667 0 01-5.786.751c3.082.752 8.987 1.528 12.485-1.517.355-.31.713-.681 1.092-1.075 1.228-1.276 2.631-2.717 4.543-2.574a3.18 3.18 0 011.355.43 3.813 3.813 0 001.335.459c1.66.258 3.935-.208 4.878-1.584a2.6 2.6 0 00.351-1.909 3.392 3.392 0 01.539-2.523 4.337 4.337 0 012.089-1.469c.746-.31 1.179-.514 1.4-1.087a1.8 1.8 0 00-.041-1.238 1.65 1.65 0 01.088-1.507c.517-.763 1.436-.681 2.408-.6a4.812 4.812 0 003.043-.421 3.1 3.1 0 001.16-1.275 2.634 2.634 0 011.59-1.423 3.473 3.473 0 011.94.021 2.41 2.41 0 001.569-.009m-1.944 41.763a14.506 14.506 0 005.051-1.445 13.586 13.586 0 00-2.821-.5 14.045 14.045 0 00-2.229 1.946M194.96 403.484c1.318.629 2.647-.026 4.486-.934a24.488 24.488 0 014.208-1.734c5.216-1.5 12.356-.892 15.28 2.729l.007.011.011.016a12.842 12.842 0 011.388-3.538c1.335-2.313 2.916-3.386 5.534-5.164.5-.336 1.031-.7 1.612-1.1a25.771 25.771 0 003.744-2.992c1.508-1.4 4.315-4.006 13.06-11.16a221.658 221.658 0 0124.81-16.836 10.411 10.411 0 015.422-1.8h.042a7.98 7.98 0 012.572.448 7.521 7.521 0 002.693.438 7.426 7.426 0 005.163-1.71c1.447-1.367 1.532-3.2 1.607-4.809.066-1.409.122-2.626 1.09-3.187 1.34-.778 3.125.444 5.014 1.738 1.736 1.189 3.529 2.418 4.732 1.8 1.046-.541 1.129-2.2 1.226-4.118.12-2.367.254-5.051 2.288-6.487a3.035 3.035 0 011.972-.562 9.959 9.959 0 002.524-.357 10.572 10.572 0 005.11-3.071 13.27 13.27 0 014.38-3.021l-6.8-13.6a3.941 3.941 0 01-.538.734 9.267 9.267 0 01-2.765 1.857l-.18.112-.181-.082c-.928-.322-1.239-.17-1.33-.089-.214.192-.1.8.006 1.4.052.284.106.582.139.882.32 2.9-1.262 6.394-3.024 6.682-.948.152-1.625-.578-2.282-1.286-.638-.688-1.295-1.407-2.2-1.365-.486.02-.73.23-1.235.7a9.856 9.856 0 01-1.185.987 10.647 10.647 0 01-5.914 1.64c-1.553.085-2.448.166-2.794.852a1 1 0 000 .837 3.015 3.015 0 01.037 1.734 5.857 5.857 0 01-3.074 3.409 4.668 4.668 0 01-3.71.429 3.469 3.469 0 01-1.764-1.806 3.149 3.149 0 00-1.761-1.728 5.214 5.214 0 00-1.014-.218 2.723 2.723 0 01-1.819-.783 2.814 2.814 0 01-.666-1.361 1.491 1.491 0 00-.1-.328c-.018.025-.678.089-2.969 3.409l-1.249 1.259-2.462-2.462-.6 1.8c.6 1.2.517 2.483-.208 3.045-.95.736-2.532-.094-3.263-.947a2.718 2.718 0 01-.589-1.2.9.9 0 00-.254-.531 2.142 2.142 0 00-1.568-.315 3.174 3.174 0 00-2.2 1.129 3.335 3.335 0 00-.309 2.409 3.344 3.344 0 01-.623 2.956 2.169 2.169 0 01-1.258.611c-.3.057-.375.082-.454.2-.3.458.317 1.408.97 2.414.969 1.491 2.175 3.348 1.749 5.4a4.883 4.883 0 01-1.967 2.939 4.337 4.337 0 01-2.732.543 2.231 2.231 0 00-1.645.306c-.4.341-.4.729-.339 1.505a4.818 4.818 0 01-.438 2.785c-.727 1.409-2.916 2.482-7.279 4.621l-.787.38c-.4.191-.589.282-.96.492a15.43 15.43 0 00-4.306 3.441 5.482 5.482 0 00-.967 1.486 3.4 3.4 0 01-.83 1.2 6.777 6.777 0 01-3.662 1.775c-.888.192-1.36.313-1.557.747-.24.531.108 1.132.7 2.067a5.119 5.119 0 011.1 4.054 6.53 6.53 0 01-1.883 2.857 6.288 6.288 0 01-2.855 1.889 3.873 3.873 0 01-1.656.086 8.671 8.671 0 00-1.117-.07 5.68 5.68 0 00-2.641.581 2.605 2.605 0 01-1.891.291 3.7 3.7 0 01-2.281-2.228 3.811 3.811 0 00-2.172-2.206 5.694 5.694 0 00-.953-.187 2.735 2.735 0 01-1.9-.825 2.821 2.821 0 01-.622-1.327 1.473 1.473 0 00-.1-.337 5.372 5.372 0 00-2.093 2.462 8.2 8.2 0 00-.839 2.519l-.037.224-5.513 2.757-6.094 3.484-2.675 3.566c.372 2.535 1.2 4.139 2.471 4.746"/><path class="d" d="M207.058 432.789a18.274 18.274 0 001.468-4.617 25.253 25.253 0 013.858-9.57 13.247 13.247 0 011.915-2.337 8.934 8.934 0 001.62-2.079 18.838 18.838 0 002.54-7.85c.108-.74.217-1.466.366-2.193a10.641 10.641 0 00-.141-.2l-.093-.13c-2.808-3.477-9.735-4.04-14.812-2.58a24.145 24.145 0 00-4.135 1.705c-1.877.928-3.359 1.659-4.873.937-1.41-.673-2.318-2.385-2.715-5.068h-5.4l-7.081-11.507h-6.118l1.5 2.993v17.8c.084 5.587 2.854 10.4 7.882 19.137 2.073 3.6 4.584 7.968 7.436 13.321 8.91-.926 14.564-3.536 16.793-7.771"/><path class="d" d="M194.413 454.221c-.009.047-.022.089-.031.135h17.994a11.5 11.5 0 012.12-2.435 9.169 9.169 0 003.166-4.919c.62-2.565-.039-4.132-.872-6.115a19.352 19.352 0 01-1.789-7.1 15.218 15.218 0 011.145-6.8 56.079 56.079 0 002.4-9.188c1.23-6.785 1.911-10.563.62-13.088-.1.558-.186 1.118-.27 1.687a19.19 19.19 0 01-2.6 8.014 9.382 9.382 0 01-1.687 2.165 12.944 12.944 0 00-1.86 2.27 24.885 24.885 0 00-3.793 9.421 18.867 18.867 0 01-1.505 4.72c-2.287 4.345-8 7.026-16.96 7.986q.6 1.135 1.225 2.328c1.652 3.172 3.525 6.768 2.7 10.912m111.781 13.597a4.882 4.882 0 00-2.08-.443 4.548 4.548 0 00-1.635.284 1.654 1.654 0 00-.991.807c-.372.946.857 2.988 2.858 4.75 1.706 1.5 3.128 2.04 3.6 1.781a3.284 3.284 0 00.731-2.594c-.042-1.657-.716-3.731-2.482-4.585m20.309-3.341a7.04 7.04 0 00-1.5-.169 3.336 3.336 0 00-2.376.768c-1.138 1.148-.444 3.71.113 5.769 1 3.7 3.061 6.348 3.769 6.729a7.71 7.71 0 00-.06-1.064c-.131-1.325-.31-3.14.895-4.123a2.5 2.5 0 011.507-.515 1.882 1.882 0 001.152-.373c1.008-.807 1.2-2.683.746-3.928a5.705 5.705 0 00-4.25-3.094"/><path class="d" d="M241.569 441.664a3.544 3.544 0 011.009-1.392 7.928 7.928 0 001.659-2.175 8.939 8.939 0 00.987-2.788 11.347 11.347 0 01.775-2.506 9.213 9.213 0 012.3-3.247 3.184 3.184 0 001.219-2.008c.412-2.766-2.227-6.277-5.134-6.831a3.224 3.224 0 00-2.007.269 10.166 10.166 0 01-2.346.618 16.347 16.347 0 01-9.893-2.692c-1.62-1.124-2.26-2.024-5.798-7.024l-1.333-1.882a1186.618 1186.618 0 00-2.946-4.134c.626 2.586-.032 6.224-1.082 12.012a57.215 57.215 0 01-2.415 9.252 14.864 14.864 0 00-1.122 6.629 18.974 18.974 0 001.755 6.949c.83 1.977 1.548 3.684.894 6.391a9.544 9.544 0 01-3.294 5.138 7.953 7.953 0 00-2.9 4.59c-.544 2.733.5 4.453 1.719 6.442a15.177 15.177 0 012.711 7.663 14.469 14.469 0 01-.143 3c1.176-.2 6.488-3.018 11.317-5.834l.069-.026 4.632-.926 1.822 7.286 2.551 11.056a2.808 2.808 0 011.428-.028 4.162 4.162 0 001.087.09c2.854-.194 4.863-4.024 4.948-4.187a8.243 8.243 0 00.892-3.713c.054-1.055.1-1.965 1.009-2.636a3.186 3.186 0 012.832-.246 8.372 8.372 0 003.547.166 7.722 7.722 0 004.923-2.865 7.645 7.645 0 00-.806.027c-1.105.076-2.621.176-3.492-.868a2.815 2.815 0 01-.561-1.757c-.032-.481-.062-.7-.229-.813-.4-.26-1.272.2-1.911.538-.715.377-1.278.673-1.684.3-.323-.295-.412-.865-.262-1.693.287-1.586 1.572-4.29 3.936-5.24a5.363 5.363 0 011.807-.354 2.69 2.69 0 001.637-.478 2.755 2.755 0 00.948-1.278 42.887 42.887 0 01-8.814-7.063c-2.865-3.01-7.66-8.048-6.242-11.739"/><path class="d" d="M253.013 389.499l-5.261-8.768v-3.234c-2.034 1.527-3.147 2.433-3.179 2.459-8.733 7.145-11.534 9.745-13.039 11.142a26.1 26.1 0 01-3.792 3.03c-.583.405-1.119.769-1.616 1.106-2.653 1.8-4.114 2.794-5.4 5.019a12.671 12.671 0 00-1.427 3.794l.01.015c.938 1.305 2.354 3.281 4.061 5.689l1.333 1.882c3.5 4.947 4.131 5.838 5.693 6.915a16.15 16.15 0 009.58 2.619 9.845 9.845 0 002.254-.6 3.635 3.635 0 012.244-.288c3.109.591 5.93 4.36 5.488 7.331a3.62 3.62 0 01-1.351 2.259 8.833 8.833 0 00-2.206 3.108 10.98 10.98 0 00-.746 2.42 9.311 9.311 0 01-1.032 2.907 8.323 8.323 0 01-1.739 2.282 3.1 3.1 0 00-.9 1.233c-1.317 3.429 3.356 8.34 6.149 11.273a42.447 42.447 0 008.644 6.94c.055-.173.108-.35.161-.534.106-.367.214-.738.36-1.107 1.283-3.216 5.549-6.286 9.343-5.581 3.775.7 6.642 5.121 6.559 10.085 4.637 10.829 9.57 16.666 14.661 17.35.334.044.721.075 1.143.109 2.034.162 5.11.408 7.1 2.694a9.621 9.621 0 011.6 2.858c.454 1.116.813 2 1.756 2.326a3.227 3.227 0 003.088-.787c.448-.431 1.143-1.646.752-4.94a24.726 24.726 0 00-2.612-7.821c-1.959-3.94-3.254-6.543-6.068-8.7a21.067 21.067 0 00-2.161-1.42c-1.007-.6-1.675-.992-1.547-1.66a6.082 6.082 0 01-2.522-1.375 7.254 7.254 0 01-1.5-2.216 3.554 3.554 0 00-1.9-2.12 4.754 4.754 0 00-1.551-.267 3.033 3.033 0 01-2.131-.706 3.914 3.914 0 01-1.021-2.83l-.005-.129c-.107-2.271-1.839-3.767-3.844-5.5s-4.287-3.705-5-6.814c-1.012-4.431 1.517-9.478 1.809-10.039a15.756 15.756 0 011.172-1.9c.477-.681.624-.918.554-1.368-.184-1.173-1.681-1.781-3.576-2.552-2.415-.982-5.42-2.2-7-5.28a3.925 3.925 0 01-.493-1.522 2.542 2.542 0 00-.385-1.12c-1.277-2.3-3.422-2.922-5.693-3.58-2.166-.628-4.406-1.279-5.8-3.48a8.083 8.083 0 01-1.081-3.175 3.812 3.812 0 00-1.459-2.9 4.485 4.485 0 00-1.44-.658 5.107 5.107 0 01-2.136-1.142 6.285 6.285 0 01-2.137-4 1.379 1.379 0 01.351-1.069c.478-.472 1.189-.28 1.816-.111a2.238 2.238 0 00.822.132c.082-.181-.324-.986-.518-1.373-.425-.845-.827-1.643-.373-2.163.427-.485 1.073-.221 1.89.11a6.411 6.411 0 003.673.631c1.021-.192 2.141-.748 2.307-1.438.073-.307-.057-.532-.314-.939a2.985 2.985 0 01-.583-1.6 2.306 2.306 0 01.171-.917m90.408-56.448c-4.6-3.7-6.195-4.377-7.785-4.377h-.04c-2.493.018-4.475 1.457-6.067 2.613a12.138 12.138 0 00-2.936 2.958 8.39 8.39 0 01-2.384 2.359 6.412 6.412 0 01-4.32 1.065 10.227 10.227 0 00-4.57.725 12.74 12.74 0 00-4.46 3.027 11.033 11.033 0 01-5.039 3.1l13.139 25.4.48.48a4.84 4.84 0 01.678-.922 4.775 4.775 0 00.914-1.379 5.113 5.113 0 00.495-2.238 1.775 1.775 0 01.5-1.447c.9-.82 2.329-.425 5.456.437 1.241.343 2.786.77 4.683 1.23a3.973 3.973 0 002.4.016 2.648 2.648 0 001.369-1.25 4.9 4.9 0 011.176-1.345c1.407-1.057 3-.807 4.4-.585 1.114.176 2.078.328 2.624-.25a2.42 2.42 0 00.32-1.954 2.725 2.725 0 01.595-2.5c.8-.7 1.807-.426 2.778-.157a3.707 3.707 0 002.633.092 4.294 4.294 0 001.925-2.687 6.012 6.012 0 00-.343-4.652 3.736 3.736 0 00-1.893-1.5 5.335 5.335 0 01-2.525-2.031 7.015 7.015 0 01-.917-5.164 2.5 2.5 0 011.072-1.658c.81-.454 1.707-.028 2.574.385a3.353 3.353 0 002.779.48 1.837 1.837 0 00.511-.373l-2.262-.832c-2.55-2.5-5.224-4.873-7.951-7.067M213.249 486.087c-1.121-2.6-.229-4.631.8-6.978a16.429 16.429 0 001.842-8.147 14.8 14.8 0 00-2.647-7.458c-1.263-2.07-2.354-3.857-1.775-6.76a7.433 7.433 0 01.672-1.948h-17.863a17.775 17.775 0 01-.648 1.944 11.894 11.894 0 00-.978 4.484c-.036 1.552-.1 4.15 1.639 5.871a6.591 6.591 0 003.3 1.648 3.879 3.879 0 001.526-.029 1.949 1.949 0 011.226.056c1.314.539 1.393 2.031 1.552 5 .083 1.56.188 3.5.489 5.973l.1.824c.306 2.38.546 4.261-.6 6.089h11.65c-.1-.184-.2-.372-.286-.576"/><path class="d" d="M231.877 467.67l-4.183.837c-1.76 1.025-9.8 5.655-11.574 5.861a21.291 21.291 0 01-1.66 4.919c-1.033 2.345-1.848 4.2-.8 6.626a8.388 8.388 0 003.475 3.677c1.271.855 2.465 1.672 2.7 3.284l11.293.869a34.427 34.427 0 005.666-2.162c-.215-.106-.434-.2-.653-.29a2.64 2.64 0 01-1.869-1.62 3.7 3.7 0 011.89-4l-2.567-11.124zm87.362-96.855l-.654-.665-13.2-25.516a10.631 10.631 0 01-2.449.332 2.618 2.618 0 00-1.731.48c-1.858 1.313-1.987 3.882-2.1 6.148-.1 2.056-.193 3.831-1.465 4.489-1.436.745-3.343-.561-5.186-1.825-1.693-1.16-3.443-2.359-4.542-1.72-.76.44-.808 1.493-.87 2.824-.075 1.614-.168 3.621-1.744 5.111a7.853 7.853 0 01-5.457 1.831 8.3 8.3 0 01-2.832-.457 7.456 7.456 0 00-2.483-.428 10.014 10.014 0 00-5.2 1.74 242.442 242.442 0 00-21.134 14.008v3.442l5.057 8.428a7.614 7.614 0 011.3-1.42c.351-.325.714-.66 1.059-1.047a5.968 5.968 0 001.528-3.2 8.924 8.924 0 011.077-2.93c2.694-4.519 9.285-6.5 13.752-5.516a5.29 5.29 0 011.249.417 6.319 6.319 0 001.413.47 15.322 15.322 0 004.788.312 7.132 7.132 0 014.171.614 3.57 3.57 0 011.51 1.421 3.9 3.9 0 001.191 1.263c1.649 1.162 3.134 1.006 5.014.81a15.994 15.994 0 014.54 0 10.858 10.858 0 016.352 3.618c1.416 1.4 2.613 2.621 5.075 2.572a10.431 10.431 0 002.9-.547 9.035 9.035 0 015.17-.326 17.272 17.272 0 012.007.636c.3.111.656.24.9.3-.143-.2-.373-.466-.558-.681-.855-.994-2.147-2.5-2.01-4.288a3.819 3.819 0 011.71-2.7 4.569 4.569 0 001.839-2.669 4.906 4.906 0 00-.121-2.305 4.407 4.407 0 01.126-3.033m7.466 92.797c-1.986-.434-3.738-.12-4.689.84-1.5 1.51-.729 4.345-.113 6.623.957 3.537 3.024 6.69 4.28 7.307a1.047 1.047 0 00.464.121.718.718 0 00.278-.055c.6-.246.52-1.032.422-2.026-.117-1.189-.263-2.668.574-3.35a1.678 1.678 0 011.025-.32 2.739 2.739 0 001.627-.563c1.348-1.079 1.581-3.4 1.024-4.923-.755-2.071-3.022-3.246-4.892-3.655m3.315 7.886a1.883 1.883 0 01-1.151.372 2.5 2.5 0 00-1.507.515c-1.2.983-1.026 2.8-.895 4.123a7.73 7.73 0 01.06 1.064c-.709-.381-2.768-3.031-3.769-6.73-.557-2.058-1.251-4.62-.113-5.769a3.337 3.337 0 012.376-.767 7.047 7.047 0 011.5.169 5.7 5.7 0 014.25 3.094c.454 1.245.262 3.121-.746 3.928m17.088 9.642h-.143l-.116.084c-3.2 2.318-2.919 2.934-2.8 3.2.062.134.2.434 1.051.434a10.606 10.606 0 002.705-.5c3.4-.965 3.312-1.7 3.281-1.947-.136-1.1-3.941-1.273-3.98-1.273m-2.1 2.844a14.028 14.028 0 012.229-1.946 13.573 13.573 0 012.821.5 14.511 14.511 0 01-5.051 1.445m4.629-68.32c-3.262 1-5.257 2.691-5.618 4.774a6.046 6.046 0 00.924 3.811 16.12 16.12 0 003.649 4.565l.151.13.2-.026a7.509 7.509 0 002.864-.971c.9-.684.9-1.694.9-2.971a16.509 16.509 0 01.155-2.626 12.9 12.9 0 011.355-4.014c.491-1 .879-1.784.333-2.514-1.008-1.348-3.942-.452-4.909-.158m3.782 2.28a13.675 13.675 0 00-1.435 4.273 17.445 17.445 0 00-.166 2.759c0 1.248-.023 1.866-.55 2.266a6.154 6.154 0 01-2.252.769 15.025 15.025 0 01-3.279-4.152 5.31 5.31 0 01-.847-3.27c.406-2.342 3.31-3.56 5.009-4.079 2.874-.877 3.7-.475 3.937-.157.2.27.046.651-.418 1.592m-8.237 25.158a3.241 3.241 0 002.091-.051 4.1 4.1 0 001.993-1.967 7.41 7.41 0 00.313-5.79 4.464 4.464 0 00-2.3-2.8 4.373 4.373 0 00-2.7 0 7.15 7.15 0 01-.518.107c.09-.132.231-.3.344-.442a5.188 5.188 0 001.372-2.749c.177-1.612-.71-3.72-2.118-4.022-.928-.2-1.559.44-2.7 1.6-.541.551-1.214 1.239-2.115 2.043a17.8 17.8 0 01-3.052 2.29 3.48 3.48 0 00-1.456 1.35c-1.278 2.087-.919 4.536-.657 6.324.162 1.111.317 2.161-.063 2.368-.173.1-.406-.013-.9-.28a3.709 3.709 0 00-5.383 1.265 9.47 9.47 0 01-1.727 1.7c-2.084 1.494-4.513 1.3-6.462 1.146-1.642-.13-2.939-.233-3.417.8-.462.995.287 2.309 1.155 3.83.811 1.42 1.729 3.03 1.469 4.229a6.036 6.036 0 01-.288.913 6.2 6.2 0 01-1.675 2.223 8.546 8.546 0 01-1.133.871 14.885 14.885 0 01-4.529 1.849 39.587 39.587 0 01-6.953.792c-1.031.04-1.342.052-1.364.505a.569.569 0 00.393.519 22.326 22.326 0 007.676 1.373 11.592 11.592 0 007.71-2.422c.385-.336.756-.72 1.149-1.128 1.145-1.189 2.319-2.4 3.838-2.305a2.309 2.309 0 011.013.333 4.7 4.7 0 001.608.549c1.976.309 4.584-.264 5.744-1.957a3.438 3.438 0 00.5-2.482 2.555 2.555 0 01.376-1.936 3.518 3.518 0 011.71-1.167 2.869 2.869 0 001.884-1.588 2.651 2.651 0 00-.016-1.8c-.118-.417-.151-.591-.03-.769.213-.316.747-.286 1.6-.211a5.616 5.616 0 003.574-.542 3.966 3.966 0 001.469-1.587 1.811 1.811 0 011.091-1.026 2.627 2.627 0 011.482.04m-1.747-.885a2.633 2.633 0 00-1.59 1.423 3.1 3.1 0 01-1.16 1.275 4.813 4.813 0 01-3.043.421c-.972-.085-1.892-.167-2.408.6a1.648 1.648 0 00-.089 1.507 1.8 1.8 0 01.042 1.239c-.219.573-.652.777-1.4 1.087a4.337 4.337 0 00-2.089 1.468 3.4 3.4 0 00-.539 2.523 2.6 2.6 0 01-.351 1.91c-.943 1.376-3.218 1.842-4.878 1.583a3.824 3.824 0 01-1.335-.459 3.176 3.176 0 00-1.355-.431c-1.912-.142-3.314 1.3-4.543 2.574-.379.393-.736.764-1.091 1.075-3.5 3.045-9.4 2.269-12.485 1.517a38.747 38.747 0 005.786-.75 15.85 15.85 0 004.827-1.973 9.424 9.424 0 001.249-.96 7.091 7.091 0 001.894-2.534 6.739 6.739 0 00.337-1.068c.331-1.529-.676-3.3-1.565-4.854-.684-1.2-1.39-2.439-1.121-3.02.219-.472 1.3-.386 2.544-.287 1.983.156 4.7.373 7.048-1.309a10.3 10.3 0 001.887-1.849c.748-.883 1.288-1.521 2.319-1.61a3.3 3.3 0 011.969.552c.555.3 1.13.616 1.745.28.921-.5.742-1.725.514-3.274-.256-1.746-.573-3.92.536-5.734a2.626 2.626 0 011.157-1.051 18.624 18.624 0 003.186-2.39 41.87 41.87 0 002.157-2.084c1.013-1.033 1.437-1.448 1.881-1.353.835.178 1.566 1.751 1.423 3.059a4.39 4.39 0 01-1.177 2.284c-.429.524-.834 1.019-.535 1.528.308.527.962.375 1.593.229a3.6 3.6 0 012.161-.043 3.663 3.663 0 011.8 2.276 6.488 6.488 0 01-.252 5.067 3.259 3.259 0 01-1.547 1.573 2.411 2.411 0 01-1.569.009 3.474 3.474 0 00-1.94-.021m-36.841 24.805a5.864 5.864 0 00-4.423-.186 2.463 2.463 0 00-1.492 1.308c-.608 1.545 1.117 3.995 3.1 5.739.612.538 2.471 2.065 3.882 2.065a1.5 1.5 0 00.727-.173c.765-.419 1.233-1.75 1.191-3.393-.048-1.918-.857-4.333-2.981-5.36m1.365 7.976c-.471.259-1.893-.278-3.6-1.78-2-1.763-3.23-3.805-2.858-4.751a1.655 1.655 0 01.99-.807 4.556 4.556 0 011.635-.284 4.878 4.878 0 012.08.443c1.766.854 2.44 2.929 2.482 4.586a3.284 3.284 0 01-.732 2.594m102.686-214.623c1.933 1.473 3.505 2.675 3.876 4.47l1.437-2.873a16.19 16.19 0 015.4-5.4 11.814 11.814 0 012.949-1.262 14.7 14.7 0 001.5-.522c3.195-1.343 4.4-3.677 5.574-5.935 1.016-1.962 1.977-3.816 4.166-4.688 2.423-.964 4.576-.007 6.66.917 2.17.963 4.219 1.873 6.613.856 2.008-.856 2.834-2.468 3.979-4.7.373-.726.757-1.477 1.227-2.288a20.115 20.115 0 017.38-7.4 26.755 26.755 0 006.8-5.906 38.11 38.11 0 005.279-8.8l.026-.06 2.377-1.585c-1.079-.559-1.473-1.676-1.953-3.06a16.153 16.153 0 00-1.323-3.061c-1.452-2.468-3.2-3.278-9-5.964-1.6-.742-3.6-1.666-5.955-2.8a329.213 329.213 0 01-8.857-4.428l-.054-.04-.388-.388c-.346.232-.69.446-1.018.621-.415.222-.828.406-1.242.59a8.632 8.632 0 00-3.073 1.982 7.7 7.7 0 00-1.37 1.968c-.118.224-.227.43-.345.617-1.749 2.764-6.317 2.787-10.346 2.807-3.382.017-6.575.033-7.333 1.577a2.951 2.951 0 00.134 2.152 3.334 3.334 0 01-.177 3.229 3.9 3.9 0 01-2.222 1.3 3.57 3.57 0 00-2.193 1.344 1.985 1.985 0 00-.353.956 6 6 0 01-.494 1.631 7.025 7.025 0 01-1.721 2.389 4.3 4.3 0 00-.943 1.169 5.762 5.762 0 000 4.293 5.21 5.21 0 002.439 3.071 3.252 3.252 0 002.378-.02 5.878 5.878 0 013.78 0 9.429 9.429 0 013.712 2.764c2.374 2.421 3.287 4.1 2.709 4.977-.365.558-.989.486-2.025.366-.5-.058-1.118-.13-1.905-.166a25.962 25.962 0 00-4.116.173c-1.355.142-2.175.228-2.465-.438-.241-.552.185-1.029.637-1.534a3.271 3.271 0 001.1-2.174 1.727 1.727 0 00-.508-1.341c-.192.006-.641.741-.857 1.095-.5.814-1.015 1.66-1.785 1.562-.609-.072-.824-.645-1.031-1.2a3.3 3.3 0 00-.963-1.551 3.569 3.569 0 00-2.606-.581 3 3 0 00-.995.275 8.555 8.555 0 00.9.423c1.083.462 2.431 1.037 2.532 2.152s-1.05 1.783-2.643 2.723c-.6.353-1.278.753-1.975 1.225a15.18 15.18 0 00-4.385 4.362 11.977 11.977 0 01-3.59 3.61 9.615 9.615 0 01-1.789.927v.472a19.129 19.129 0 003.5 10.489 23.673 23.673 0 004.934 4.632m-98.906-33.929c.236.03.562.055.975.087a50.766 50.766 0 016.12.8c4.029.78 6.248 1.209 7.226 2.754.779 1.232.431 2.389-.011 3.854a15.777 15.777 0 00-.839 5.113 12.018 12.018 0 001.193 5.186 5.271 5.271 0 01.6 3.558l4.21 2.526 6.165-1.753h3.434l2.8-3.5a7.725 7.725 0 01-3.024-3.627c-.213-.569-.386-1.341 0-1.793.532-.628 1.64-.192 2.922.317.751.3 2.145.85 2.389.568.116-.137-.155-.745-.352-1.188a5.735 5.735 0 01-.623-3.953 3.642 3.642 0 01.959-1.625 6.067 6.067 0 001.617-5.065 11.035 11.035 0 01.069-2.114c.545-3.48 3.867-5.636 6.292-7.21 1.349-.875 2.743-1.78 2.574-2.328-.044-.141-.235-.207-.971-.407a23.972 23.972 0 01-3.2-1.085 18.147 18.147 0 01-3.023-1.563 8.55 8.55 0 00-2.253-1.08 7.766 7.766 0 00-3.155-.413 6.373 6.373 0 01-3.07-.482 12.023 12.023 0 01-2.969-1.776c-.934-.71-1.412-1.042-2.061-.864a2.4 2.4 0 00-1.127.854 2.054 2.054 0 01-1.674.932 2.617 2.617 0 01-2.178-2.14 3.072 3.072 0 011.1-2.536c.352-.394.684-.767.667-1.049-.026-.408-.9-1.837-11.021-3.116l-7.987 2.646-13.964.735v.563c3.637 12.809 7.742 19.6 12.2 20.169"/><path class="d" d="M290.236 271.884c-1.49-1.707-2.084-3.241-1.764-4.561.338-1.4 1.555-2.042 2.964-2.792.507-.27 1.032-.548 1.557-.883a11.38 11.38 0 004.642-6.145c.723-1.79 1.407-3.481 3.341-4.486 2.123-1.1 3.918-.412 5.995.387a16.222 16.222 0 008.244 1.36c4.751-.52 10.331-3.12 11.317-6.917a4.693 4.693 0 00-.548-3.435 12.405 12.405 0 01-1.23-5.358 16.148 16.148 0 01.858-5.246c.441-1.462.733-2.428.061-3.489-.84-1.328-2.733-1.743-6.936-2.556a50.283 50.283 0 00-6.07-.793c-.423-.033-.755-.058-1-.089-4.653-.6-8.884-7.5-12.577-20.517l-.008-.06v-.57l-2.338.123-4.5 1.8-10.04-2.775-4.116-3.294-1.228 1.228c.866 1.284 1.084 2.19.687 2.836a1.507 1.507 0 01-1.1.624 1.2 1.2 0 00-.716.318c-.231.267-.169.617-.03 1.26a5.151 5.151 0 01.13 2.068 3.308 3.308 0 01-1.33 2.071 5.785 5.785 0 00-1.376 1.61 6.819 6.819 0 00-.681 4.824 1.244 1.244 0 00.488.755c.144.07.285 0 .7-.264a3.546 3.546 0 011.734-.664c3.163-.208 7.193 4.723 7.551 9.257.045.562.034 1.1.026 1.617a4.231 4.231 0 001.89 4.482c.419.3.815.586.735 1.087-.128.806-1.187.8-2.655.781-1.753-.016-4.154-.04-5.436 1.234-.9.893-.831 2.514 1.892 16.418.7 3.6.922 4.6 1.725 6.069a12.79 12.79 0 002.77 3.443 8.187 8.187 0 012.573 3.714 9.062 9.062 0 01.328 3.825c-.09 1.108-.11 1.664.44 2.185.521.495 1.052.482 2.106.41.286-.02.594-.039.924-.046l-.015-.042zm-88.091-72.174c2.057 1.037 4.95 1.006 11.3.838 2.149-.057 3.806-.16 5.137-.242 1.269-.079 2.314-.144 3.33-.144a20.544 20.544 0 014.019.393 14.915 14.915 0 013.136.9 14.484 14.484 0 003.06.873c6.821 1.306 11.138.769 12.834-1.593.612-.852.675-1.968.8-4.191.1-1.775.372-6.482-2.527-9.4a3.919 3.919 0 00-.938-.677 89.79 89.79 0 01-1.642-1.033c-3.032-1.948-4.508-3.093-5.485-3.851a6.876 6.876 0 00-2.383-1.412c-3.053-1.025-7.456-.7-9.245 1.621a1.989 1.989 0 00-.427.874 1.789 1.789 0 01-.489.931c-1.395 1.457-3.839.705-7.222-.337a37.4 37.4 0 00-12.558-2.181c-2.856.076-4.422.564-4.931 1.533a3.12 3.12 0 00.044 2.2 6.31 6.31 0 01-.022 3.941 4.15 4.15 0 01-1.111 1.664 2.052 2.052 0 00-.65.965c-.72 2.372 2.182 6.419 5.971 8.327m158.508 8.899c1.235.963 2.64 2.051 4.044 1.69 1.292-.33 1.994-1.7 2.372-2.429a5.277 5.277 0 00.513-2.659c.038-.939.091-2.226.325-4.27l.035-.29c.095-.81.112-.99 0-1.257-.6-1.407-3.485-1.923-5.708-1.509a6 6 0 00-4.135 2.461 5.333 5.333 0 00-.815 3.267c.188 2.515 2.18 4.067 3.371 4.995m-96.754 39.789a2.87 2.87 0 011.329 2.154 2.528 2.528 0 01-.484 1.462 2.011 2.011 0 00-.4 1.194 3.016 3.016 0 00.826 1.952c.18.173.327.3.49.267.185 0 .37-.487.585-1.046a11.363 11.363 0 011.735-3.211 9.886 9.886 0 012.252-2.065 5.885 5.885 0 002.129-2.293 8.537 8.537 0 00.841-2.523 4.927 4.927 0 00.019-2.436c-.258-.737-1.031-1.747-3.243-2.376l.121-.425-.121.425a8.516 8.516 0 00-2.14-.268 5.424 5.424 0 00-5.311 7.606 5.1 5.1 0 001.375 1.579m99.604-20.689a8.042 8.042 0 01-.352-3.847c.1-1.14.132-1.753-.392-2.158-.754-.585-2.027-.233-3.151.077-1.981.545-4.357 2.645-6 4.31-1.984 2.011-2.977 3.018-3.44 4.268-.841 2.269-.8 5.427.735 6.572a1.847 1.847 0 001.3.331 3.8 3.8 0 012.193.526 5.935 5.935 0 012.1 2.262c.468.762.736 1.163 1.271 1.221a1.351 1.351 0 001.306-.6c.154-.419-.444-1.112-.925-1.668-.577-.668-1.123-1.3-.829-1.911.2-.417.715-.626 1.538-.626a10.736 10.736 0 012.51.388 25.791 25.791 0 018.469 4.088c1.228.829 2.286 1.546 2.686 1.283.369-.243.543-1.419-.181-3.931a11.014 11.014 0 00-2.568-4.264 20.673 20.673 0 00-4-3.7 5.314 5.314 0 01-2.268-2.62m-126.639 16.011c-.11.435-.262 1.031-.077 1.238a1.685 1.685 0 001.379.139 1.9 1.9 0 001.412-.869 2.757 2.757 0 00-.923-2.1c-.876-.991-2.418-2.042-3.881-1.751-.942.189-2.265 1.07-2.3 2.234-.015.528.224 1.21.591 1.341.475.166 1.277-.511 1.865-1.008a2.706 2.706 0 011.4-.829.65.65 0 01.367.113c.466.306.312.909.164 1.492"/><path class="d" d="M426.757 282.643a17.221 17.221 0 01-11.806-5.982c-1.909-2.246-2.82-4.611-2.567-6.658a4.63 4.63 0 011-2.342 3.056 3.056 0 00.765-2.053c-.03-2.024-1.688-3.288-3.788-4.888a24.048 24.048 0 01-5.02-4.719 19.575 19.575 0 01-3.584-10.74v-.334a9.684 9.684 0 01-2.344.363 13.806 13.806 0 00-5.226 1.249 21.049 21.049 0 00-5.409 3.394 11.44 11.44 0 01-5.295 2.828 7.083 7.083 0 01-3.051-.216 28.9 28.9 0 00-5.027-.66c-1.242-.055-2.5-.045-3.188.735a1.718 1.718 0 00-.384 1.091 3.276 3.276 0 01-.458 1.506c-1.168 1.883-4.152 2.129-5.729 1.977a6.338 6.338 0 01-2.909-1.015 4.172 4.172 0 00-2.363-.753 4.616 4.616 0 00-2.114.5 3.655 3.655 0 01-2.388.382 5.565 5.565 0 01-3.65-2.644 1.76 1.76 0 01-.217-1.5 1.31 1.31 0 011.114-.684c.35-.065.573-.117.713-.3a3.023 3.023 0 00-.2-2.48c-.662-1.675-2.18-3.607-3.947-3.894a2.965 2.965 0 00-1.907.4 4.021 4.021 0 01-2.514.487 4.439 4.439 0 01-1.26-.416l-2.993 3.741H337.4l-6.259 1.788-4.271-2.562c-.96 2.916-5.244 6.273-11.606 6.969a16.6 16.6 0 01-8.452-1.386c-2.059-.793-3.686-1.418-5.632-.408-1.789.929-2.412 2.473-3.135 4.259a11.753 11.753 0 01-4.815 6.341 22.9 22.9 0 01-1.587.9c-1.369.728-2.45 1.3-2.742 2.505s.291 2.609 1.721 4.227l.055.063v.926l.034.085a8.876 8.876 0 012.533.421 10.229 10.229 0 013.476 1.946c.757.6 1.111.856 1.566.71.673-.218.906-1.159 1.177-2.249.336-1.354.755-3.038 2.28-3.91 1.593-.912 3.424-.41 4.762-.043a9.22 9.22 0 013.986 2.334 10.845 10.845 0 003.15 2.11 5.824 5.824 0 002.931.508 9.315 9.315 0 013.212.358 10.33 10.33 0 015.1 3.241 14.143 14.143 0 003.839 2.988 12.507 12.507 0 006.835 1.342c1.835-.05 3.42-.092 4.794 1.407 2.263 2.47 1.451 6.351.106 12.781-1.139 5.45-2.04 9.754-5.52 11.8-.321.188-.656.352-.992.516a4.459 4.459 0 00-2.375 1.954 3.987 3.987 0 00-.339 1.959 4.194 4.194 0 01-.567 2.5 4.8 4.8 0 01-2.8 2.06 1.765 1.765 0 01-1.36-.151c-.664-.426-.633-1.278-.605-2.029.024-.653.047-1.269-.3-1.528-.594-.439-2.058.107-3 .872a3.641 3.641 0 00-1.067 1.46 7.751 7.751 0 01-.619 1.1 8.194 8.194 0 01-5.051 3.166 3.476 3.476 0 01-2.652-.4 3.774 3.774 0 01-1.154-2.837c-.08-.726-.155-1.413-.5-1.529a1.183 1.183 0 00-1.218.633c-.216.531.383 1.335.91 2.045.638.857 1.241 1.667.841 2.421-.283.535-.84.57-1.331.6a2.4 2.4 0 00-1.446.429 1.9 1.9 0 00-.674 1.316 6.161 6.161 0 01-.262.933l6.972 13.943a10.639 10.639 0 014.553-.687 6.055 6.055 0 004.067-.995 7.909 7.909 0 002.269-2.252 12.524 12.524 0 013.032-3.052c1.644-1.194 3.69-2.679 6.324-2.7h.044c1.7 0 3.356.688 8.062 4.474 2.724 2.192 5.4 4.569 7.948 7.061l2.318.835c.213-.244.45-.534.757-.919a15.75 15.75 0 001.492-2.252c.427-.754.736-1.3 1.416-1.445.851-.185 1.48.423 2.144 1.066a11.141 11.141 0 00.877.788c3.064 2.4 8.4 2.06 10 .071.719-.894.551-1.93.372-3.028-.184-1.135-.376-2.309.55-3.208 1.033-1 2.526-.756 4.257-.473 1.951.319 4.16.681 6.474-.49 1.008-.511 1.522-.975 1.528-1.381 0-.341-.42-.625-1.113-1.059a5.956 5.956 0 01-2.38-2.275 3.223 3.223 0 01-.172-2.53 4.469 4.469 0 00.131-2.019c-.281-1.591-1.322-2.461-2.64-3.563a15.964 15.964 0 01-4.4-5.16c-.415-.8-1.7-3.442-.747-4.107.431-.3.891-.008 1.338.281a2.233 2.233 0 001.5.53c.745-.122 1.268-1.011 1.649-1.659.354-.6.654-1.119 1.188-.989.609.154.554.889.478 1.906-.088 1.175-.208 2.784.594 3.505 1.11 1 3.894.338 5.643-.915a5.4 5.4 0 001.37-1.42 3.583 3.583 0 011.339-1.269c1.616-.838 4.213-.22 7.515 1.785a50.711 50.711 0 017.827 6.252c2.6 2.392 4.853 4.457 7.129 5.212.859.283 1.223.208 1.306.12.227-.247-.276-1.4-.545-2.016-.455-1.044-.849-1.946-.314-2.436.5-.451 1.246-.066 2.041.343.459.237 1.31.675 1.536.512.133-.1.021-.678-.061-1.1a5.511 5.511 0 01-.11-2.173c.379-1.788 2.126-2.444 5.955-3.881.687-.258 1.447-.543 2.284-.866 2.067-.8 3.654-1.454 4.929-1.982 3.508-1.452 4.69-1.94 6.811-1.582a12.832 12.832 0 012.52.732c.851.322 1.273.467 1.558.242.567-.447.185-1.91-.184-3.324-.5-1.929-1.073-4.115.127-5.473 1.237-1.4 3.659-1.116 5.425-.908.425.05.96.113 1.31.116-.2-.132-.483-.291-.728-.429a12.157 12.157 0 01-4.268-3.542 7.761 7.761 0 01-1.393-4.192 6.762 6.762 0 00-1.259-3.77 6.185 6.185 0 00-2.261-1.927 10.118 10.118 0 01-2.989-2.427 13.811 13.811 0 01-4.512.785c-.169 0-.34 0-.509-.009M552.689 168.53a2.961 2.961 0 01-.652-1.021c-.522-1.424.161-2.614.821-3.765a4.628 4.628 0 00.933-3.374 3.228 3.228 0 00-.864-1.533 2.934 2.934 0 01-.916-2.1 3.088 3.088 0 01.847-2.046 5.442 5.442 0 00.948-1.64 6.261 6.261 0 00-.805-5.763 5.742 5.742 0 00-2.821-1.606c-.85-.274-1.652-.534-1.709-1.3-.051-.682.544-1.033 1.118-1.373a3.416 3.416 0 001.574-1.495c.227-.509-.079-2.193-.9-5.006a64.467 64.467 0 00-.4-1.307c-.6-1.966-.907-2.953-.487-4.264a3.165 3.165 0 01.55-1.05 1.467 1.467 0 00.325-.679c.374-1.714-1.032-3.725-2.5-4.868a4.452 4.452 0 00-1.739-.872 4.628 4.628 0 01-1.8-.9 8.533 8.533 0 01-2.818-5.6 9.3 9.3 0 01.69-4.667c.432-1.191.743-2.051.231-3.17a4.517 4.517 0 00-3.217-2.4c-.086-.016-2.155-.376-3.127.74a2.534 2.534 0 00-.512 1.61c-.031.47-.066 1-.565 1.174-.658.218-1.039-.425-1.62-1.407a13.829 13.829 0 00-3.225-3.978c-.32-.258-.625-.474-.907-.674a4.054 4.054 0 01-1.9-2.2 3.132 3.132 0 01.016-1.748 1.131 1.131 0 00.011-.838c-.227-.473-.816-.534-1.925-.607a9.632 9.632 0 01-4.075-.963c-.95-.492-2.154-1.839-4.552-4.523-1.44-1.61-1.79-2.152-1.88-2.9a4.229 4.229 0 011.2-3.13c.364-.473.708-.92.6-1.172-.075-.175-.394-.431-1.045-.577a4.378 4.378 0 00-3.568.734 2.534 2.534 0 00-.7 1.11 3.292 3.292 0 01-1.086 1.561 3.5 3.5 0 01-2.25.7 3.6 3.6 0 00-1.384.246c-2.114.928-3.4 4.87-2.421 7.4a4.382 4.382 0 002.266 2.28 6.639 6.639 0 013.03 3 9.632 9.632 0 01.011 7.443 5.684 5.684 0 01-1.713 2.354 10.22 10.22 0 00-1.868 2.148 11.6 11.6 0 00-1.729 4.2 15.156 15.156 0 01-1.8 4.632 8.36 8.36 0 01-2.108 2.572 4.654 4.654 0 00-1.418 1.826 11.815 11.815 0 00-1.117 5.423c-.054 1.843-.1 3.584-1.6 5.293a7.24 7.24 0 01-1.265 1.125 3.957 3.957 0 00-1.336 1.453 7.153 7.153 0 00-.74 2.272 3.2 3.2 0 01-1.162 2.3 2.792 2.792 0 01-1.52.478 1.63 1.63 0 00-1.1.376 2.326 2.326 0 00-.62 1.623 6.875 6.875 0 01-.131.808c-.554 2.269-3.207 3.294-5.547 4.2-2.032.786-3.953 1.527-4.184 2.853a2.132 2.132 0 00.455 1.512 2.266 2.266 0 01.408 2.111c-.422 1.1-1.548 1.3-2.741 1.52a8.025 8.025 0 00-3.605 1.333 4.383 4.383 0 00-1.548 2.172 23.516 23.516 0 01-2.782 4.812c-1.936 2.684-2.929 3.307-3.707 3.68a5.381 5.381 0 01-2.277.543 9.507 9.507 0 00-2.218.368 6.941 6.941 0 00-2.725 1.388 5.782 5.782 0 01-2.612 1.273 20.512 20.512 0 01-6.34.008 43.235 43.235 0 01-.892-.106 6.718 6.718 0 00-1.307-.1 7.6 7.6 0 001.221 1.49c.425.453.908.967 1.369 1.531 2.992 3.667 4.279 7.258 3.628 10.114a10.194 10.194 0 01-4.148 5.609l.308.308c2.932 1.52 5.9 3 8.815 4.407 2.354 1.133 4.347 2.056 5.948 2.8 5.738 2.658 7.671 3.553 9.194 6.14a16.664 16.664 0 011.36 3.14c.512 1.481.883 2.551 2.062 2.959 1.846.639 3.969-.909 5.107-1.74a13.689 13.689 0 004.74-6.31c.78-1.765 1.455-3.289 3.246-4.324 2.181-1.26 5.4-1.341 8.6-.219 3.252 1.138 5.842 3.3 6.76 5.64a6.335 6.335 0 01.2 3.593 14.963 14.963 0 00-.19 1.8c-.149 4.965 3.691 10.262 11.413 15.745l.093.066v.211a4.191 4.191 0 011.973-.535 6.483 6.483 0 002.893-.835 8.683 8.683 0 003.36-4.224 9.13 9.13 0 00.774-4.565 6.383 6.383 0 011.034-4.355c.207-.305.44-.6.669-.89.651-.825 1.215-1.537 1.036-2.3a2.108 2.108 0 00-.487-.853 1.211 1.211 0 01-.387-1.157c.205-.614.875-.674 1.651-.744a8.16 8.16 0 002.158-.416c1.587-.578 3.237-1.906 3.249-3.129a1.867 1.867 0 00-.424-1.082 2.007 2.007 0 01-.449-1.67 2.046 2.046 0 01.969-1.216 7.664 7.664 0 00.921-.768c1.124-1.111 1.928-2.553 1.687-3.024-.165-.324-1.031-.316-1.656-.309-.857.008-1.666.017-1.9-.623-.47-1.26 2.462-3.276 4.685-4.11a8.824 8.824 0 011.61-.444 1.654 1.654 0 00.921-.369 2.958 2.958 0 00.871-2.365 5.305 5.305 0 01.818-2.859 4.255 4.255 0 013.411-1.6 3.991 3.991 0 002.817-1.1c.975-1.087.853-2.522.723-4.041-.144-1.69-.293-3.436 1.059-4.824a6.068 6.068 0 012.72-1.44c.931-.289 1.465-.48 1.593-1.01.116-.484-.158-1.035-.847-2.346a7.515 7.515 0 00-1.143-1.687"/><path class="d" d="M504.434 213.378a14.971 14.971 0 01.2-1.857 5.9 5.9 0 00-.18-3.367c-.873-2.225-3.362-4.288-6.5-5.385-3.086-1.08-6.165-1.011-8.236.185-1.667.963-2.313 2.426-3.062 4.12a14.065 14.065 0 01-4.884 6.489c-1.1.8-3.362 2.448-5.4 1.831l-2.518 1.679a38.53 38.53 0 01-5.316 8.842 27.15 27.15 0 01-6.9 6 19.74 19.74 0 00-7.241 7.251c-.464.8-.846 1.548-1.216 2.269-1.142 2.227-2.044 3.986-4.2 4.9-2.569 1.094-4.8.1-6.965-.858-2.092-.929-4.068-1.806-6.316-.91-2.037.811-2.96 2.594-3.937 4.48-1.15 2.219-2.453 4.735-5.8 6.14a15.233 15.233 0 01-1.545.537 11.269 11.269 0 00-2.852 1.219 15.74 15.74 0 00-5.236 5.239l-1.742 3.487a3.541 3.541 0 01-.841 2.25 4.2 4.2 0 00-.925 2.138c-.238 1.922.637 4.166 2.465 6.317a16.759 16.759 0 0011.486 5.826 13.186 13.186 0 004.7-.7c-.879-1.11-3.642-4.843-2.4-6.429 1.036-1.33 4.076-.226 7.927 1.174 3.472 1.261 7.791 2.832 8.9 1.475a2.925 2.925 0 00.406-1.491 7.123 7.123 0 011.35-3.8l.215-.284a2 2 0 00.584-1.223c0-.513-.311-.869-.9-1.505-.24-.259-.5-.542-.77-.876a5.627 5.627 0 01-.893-1.585c-.192-.443-.46-1.063-.93-2.039a62.314 62.314 0 00-1.711-3.288c-.8-1.45-1.165-2.111-.982-3.175a4.863 4.863 0 011.949-2.94c2.412-1.723 5.669-.648 9.436.6l.7.229a99.149 99.149 0 0012.329 3.525 13.806 13.806 0 007.5-.593 51.253 51.253 0 0111.868-2.068 128.73 128.73 0 013.945-.215c4.182-.183 6.7-.293 9.075-2.334a7.559 7.559 0 001.61-1.933 16 16 0 012.8-3.363 34.737 34.737 0 013.409-2.807c1.559-1.16 2.5-1.861 2.653-3.121a2.98 2.98 0 00-.44-1.855 3.524 3.524 0 01-.438-2.618c.532-2.286 3.032-4.24 4.94-3.875a2.805 2.805 0 011.32.7c.064.054.145.121.206.164a6.108 6.108 0 00-.05-1.428c-.141-1.4-.333-3.324.761-4.6.037-.043.076-.076.114-.116v-.367c-7.788-5.551-11.66-10.952-11.507-16.052m-140.113 13.998a7.2 7.2 0 01-.3-3.449c.1-1.14.2-2.216-.73-2.937-1.1-.855-2.671-.424-3.93-.077-1.741.479-3.892 2.007-6.4 4.548-2.066 2.1-3.1 3.147-3.633 4.576-.973 2.625-.852 6.181 1.035 7.589a2.664 2.664 0 001.84.506 2.938 2.938 0 011.743.407 5.115 5.115 0 011.785 1.959c.483.786.939 1.53 1.929 1.638a2.186 2.186 0 002.235-1.173c.333-.908-.421-1.781-1.087-2.551a4.532 4.532 0 01-.706-.94s.457-.423 3.04.227a25.045 25.045 0 018.19 3.963c1.271.857 2.213 1.493 2.982 1.493a1.215 1.215 0 00.686-.205c.891-.588.952-2.242.181-4.918a11.8 11.8 0 00-2.743-4.59 21.439 21.439 0 00-4.158-3.845 4.447 4.447 0 01-1.962-2.223m5.446 6.642a11.005 11.005 0 012.568 4.264c.725 2.512.549 3.687.181 3.931-.4.263-1.458-.454-2.685-1.283a25.8 25.8 0 00-8.47-4.087 10.734 10.734 0 00-2.51-.388c-.823 0-1.337.209-1.537.626-.294.613.251 1.244.829 1.911.481.556 1.079 1.249.925 1.668a1.351 1.351 0 01-1.306.6c-.535-.058-.8-.459-1.271-1.221a5.934 5.934 0 00-2.1-2.262 3.8 3.8 0 00-2.193-.526 1.848 1.848 0 01-1.306-.331c-1.534-1.145-1.576-4.3-.735-6.572.463-1.251 1.457-2.257 3.44-4.269 1.643-1.665 4.018-3.765 6-4.31 1.124-.31 2.4-.661 3.151-.077.523.405.494 1.019.391 2.158a8.041 8.041 0 00.352 3.847 5.314 5.314 0 002.268 2.62 20.7 20.7 0 014 3.7m-9.66-24.718c1.132.883 2.5 1.949 4.018 1.949a3.17 3.17 0 00.788-.1c1.678-.429 2.53-2.086 2.939-2.881a6.126 6.126 0 00.611-3.028c.038-.926.089-2.193.321-4.205l.034-.287a2.988 2.988 0 00-.067-1.706c-.889-2.1-4.443-2.452-6.685-2.032a6.911 6.911 0 00-4.715 2.85 6.229 6.229 0 00-.955 3.814c.217 2.907 2.4 4.609 3.711 5.627m-2.012-8.96a6 6 0 014.135-2.461c2.222-.414 5.112.1 5.707 1.509.113.266.1.447 0 1.257l-.035.29a52.715 52.715 0 00-.325 4.27 5.281 5.281 0 01-.513 2.659c-.378.733-1.08 2.1-2.372 2.429-1.4.36-2.809-.728-4.044-1.691-1.191-.928-3.183-2.48-3.371-4.995a5.333 5.333 0 01.815-3.267m-94.77 48.721c.645.554 1.011.9 1.02 1.5a1.7 1.7 0 01-.353.985 2.872 2.872 0 00-.532 1.669 3.863 3.863 0 001.1 2.578 1.614 1.614 0 001.1.514h.03c.776-.021 1.046-.724 1.388-1.613a10.575 10.575 0 011.6-2.981 9.025 9.025 0 012.072-1.898 6.692 6.692 0 002.4-2.6 9.451 9.451 0 00.93-2.788 5.649 5.649 0 00-.019-2.875c-.327-.934-1.259-2.2-3.836-2.934-.2-.056-4.875-1.336-7.544 1.915a6.435 6.435 0 00-.937 6.677 5.891 5.891 0 001.587 1.851m.035-7.966a5.6 5.6 0 014.478-1.893 8.516 8.516 0 012.14.267l.122-.425-.121.425c2.212.629 2.985 1.639 3.243 2.376a4.924 4.924 0 01-.019 2.436 8.526 8.526 0 01-.84 2.523 5.883 5.883 0 01-2.13 2.293 9.918 9.918 0 00-2.252 2.065 11.361 11.361 0 00-1.737 3.212c-.215.559-.4 1.04-.585 1.045-.162.033-.309-.094-.49-.266a3.013 3.013 0 01-.826-1.952 2.011 2.011 0 01.4-1.195 2.53 2.53 0 00.484-1.462 2.871 2.871 0 00-1.329-2.155 5.1 5.1 0 01-1.377-1.574 5.593 5.593 0 01.833-5.715m-27.226 4.435a1.893 1.893 0 001.431.5 3.949 3.949 0 00.787-.082 2.688 2.688 0 002.072-1.457c.26-.784-.151-1.892-1.1-2.966-1.031-1.167-2.883-2.4-4.718-2.033a3.677 3.677 0 00-3.011 3.077 2.27 2.27 0 001.178 2.2c.953.343 1.941-.494 2.734-1.165.176-.148.408-.344.591-.476-.026.12-.059.253-.086.359-.169.663-.378 1.487.12 2.046m-1.2-2.6c-.588.5-1.39 1.174-1.865 1.008-.368-.131-.607-.812-.591-1.341.034-1.165 1.358-2.046 2.3-2.234 1.463-.291 3.006.76 3.881 1.751a2.757 2.757 0 01.923 2.1 1.894 1.894 0 01-1.411.869 1.686 1.686 0 01-1.379-.139c-.185-.208-.033-.8.077-1.238.148-.582.3-1.186-.164-1.492a.651.651 0 00-.367-.113 2.706 2.706 0 00-1.4.828m-33.19-42.445c2.344 1.18 5.672 1.09 11.717.932 2.164-.057 3.83-.161 5.168-.243a24.573 24.573 0 017.129.235 14.046 14.046 0 012.977.851 15.369 15.369 0 003.218.92 34.64 34.64 0 006.421.73c2.85 0 5.792-.578 7.3-2.677.761-1.06.83-2.261.967-4.658.108-1.88.394-6.873-2.783-10.074a4.651 4.651 0 00-1.1-.807 93 93 0 01-1.628-1.024c-3-1.927-4.457-3.058-5.42-3.806a7.616 7.616 0 00-2.644-1.552c-3.415-1.144-8.174-.741-10.228 1.919a2.862 2.862 0 00-.585 1.2.936.936 0 01-.269.53c-1.017 1.061-3.241.377-6.322-.571a38.36 38.36 0 00-12.843-2.221c-3.254.088-5.009.707-5.691 2.007a3.844 3.844 0 00-.033 2.819 5.421 5.421 0 01.01 3.427 3.254 3.254 0 01-.9 1.345 2.9 2.9 0 00-.875 1.337c-.953 3.14 2.618 7.461 6.42 9.376m-5.573-9.118a2.054 2.054 0 01.65-.965 4.148 4.148 0 001.112-1.663 6.315 6.315 0 00.022-3.942 3.124 3.124 0 01-.044-2.2c.508-.97 2.075-1.457 4.931-1.534a37.407 37.407 0 0112.553 2.186c3.383 1.042 5.828 1.794 7.222.337a1.783 1.783 0 00.489-.931 1.988 1.988 0 01.427-.875c1.789-2.317 6.191-2.646 9.245-1.621a6.87 6.87 0 012.383 1.412c.977.758 2.452 1.9 5.485 3.851.787.506 1.294.818 1.642 1.033a3.91 3.91 0 01.938.677c2.9 2.92 2.629 7.627 2.527 9.4-.127 2.223-.192 3.339-.8 4.191-1.7 2.362-6.013 2.9-12.834 1.594a14.486 14.486 0 01-3.061-.874 14.889 14.889 0 00-3.136-.9 20.548 20.548 0 00-4.019-.393c-1.016 0-2.061.065-3.33.143-1.332.082-2.989.185-5.136.242-6.346.169-9.238.2-11.3-.838-3.79-1.908-6.692-5.955-5.971-8.327"/><path d="M333.873 456.115c-72.73 0-129.7-30.378-129.7-69.158h14c0 29.9 52.985 55.158 115.7 55.158s115.7-25.259 115.7-55.158h14c.002 38.782-56.97 69.158-129.7 69.158z" fill="#c1ae8a"/><path class="f" d="M173.288 348.094c-1.185-.044-7.473.189-8.63 1.409a4.648 4.648 0 00-.938 2.783c.387 1.877 4.966 1.811 4.966 1.811z"/><path class="g" d="M265.031 364.495c2.325-.572 4.336 4.849 4.336 10.831s-1.941 10.83-4.336 10.83-4.995-.066-5.41-.441c-1.42-1.282-1.8-4.3-1.9-5.161s.666-14.424 7.31-16.059"/><path class="h" d="M264.782 367.421c-1.624 0-2.94 3.761-2.94 8.4s1.316 8.4 2.94 8.4 2.94-3.761 2.94-8.4-1.316-8.4-2.94-8.4m2.533 6.049a4.031 4.031 0 01.011 1.313c-.1.134-1.967.877-2.005.539a14.451 14.451 0 011.733-2.932c.107-.057.217.693.261 1.08m-1.4-4.24c.075-.226.318.2.434.435a2.319 2.319 0 01.279 1.044 24.951 24.951 0 01-1.512 3.805c-.1-.209.724-5.058.8-5.284m-.762 6.593c0 .584-.165 1.057-.37 1.057s-.37-.473-.37-1.057.166-1.057.37-1.057.37.474.37 1.057m-.81-7.235a.446.446 0 01.881 0c.014.308-.316 5.617-.44 5.617s-.454-5.309-.44-5.617m-1.125 1.077c.115-.239.359-.66.434-.435s.9 5.075.8 5.284a24.939 24.939 0 01-1.512-3.805 2.32 2.32 0 01.279-1.045m-.968 3.806c.044-.387.154-1.137.261-1.08a14.468 14.468 0 011.733 2.932c-.038.338-1.907-.405-2.006-.539a4.039 4.039 0 01.011-1.313m0 4.7a4.038 4.038 0 01-.011-1.313c.1-.133 1.967-.877 2.006-.539a14.467 14.467 0 01-1.74 2.932c-.107.057-.217-.693-.261-1.08m1.4 4.241c-.075.226-.318-.2-.434-.435a2.314 2.314 0 01-.279-1.044 24.933 24.933 0 011.512-3.8c.1.209-.724 5.058-.8 5.284m1.572.642a.446.446 0 01-.881 0c-.014-.308.316-5.617.44-5.617s.455 5.309.44 5.617m1.125-1.077c-.115.24-.359.661-.434.435s-.9-5.075-.8-5.284a24.945 24.945 0 011.512 3.8 2.319 2.319 0 01-.279 1.044m.968-3.806c-.044.388-.155 1.138-.261 1.08a14.462 14.462 0 01-1.733-2.932c.038-.338 1.907.405 2.005.539a4.03 4.03 0 01-.011 1.313"/><path class="i" d="M218.119 378.658s6.1 1.072 7.049 6.132 2.375 11.967 2.375 11.967l1.984 2.171s1.748-10.1-.555-15.613-6.7-5.195-7.82-5.268a10.228 10.228 0 00-3.033.611"/><path class="g" d="M214.354 378.829c.942-.334 6.516-1.057 9.216 1.937s4.4 8.1 4.4 14.645-2.6 16.217-7.455 16.641c-4.7.411-7.9.1-9.165-.7q-.162-.1-.321-.208a8.161 8.161 0 01-3.109-3.767c-1.095-2.834-.864-5.9-.973-8.874a46.738 46.738 0 01.283-7.565 22.053 22.053 0 012.094-7.43 9.336 9.336 0 015.028-4.683"/><path d="M269.482 356.351c-.118-2.348-3.074-8.255-6.713-10.956-4.033-2.992-16.164-11.968-25.84-12.837-16.541-1.486-33.872-.548-37.953 0s-9.653 2.778-15.529 7c-5.338 3.839-19.727 14.284-19.727 14.284s-19.931 5.87-28.973 11.917c-7.984 5.344-8.179 9.376-8.179 10.941s-1.075 19.682.645 22.345 11.673 4.97 22.5 7.161 34.743 3.756 37.323 3.756a98.323 98.323 0 0011.088-.7s8.682-2 12.034-3.052c-.124-2.631-.115-5.276-.035-7.908.144-4.745-.131-10.027 2.368-14.271 1.583-2.688 4.582-5.191 7.746-5.612 8.195-1.093 9.43 11.418 9.418 16.956 0 .325.188 3.406-.127 3.557l32.025-15.379s-.146-9.175 1.056-14.851c.558-2.635.891-3.109 2.157-3.816 3.047-1.7 4.571 9.162 4.571 9.162l.146-4.9s.118-10.448 0-12.8" fill="#6e86d5"/><path class="k" d="M165.521 354.559s20.559-16.575 27.271-18.1c3.956-.9 17.5-2.177 43.875-.455a86.514 86.514 0 00-12.478 18.8c-1 2.1-1.758 2.039-2.524 2.114s-33.629.132-56.145-2.36m62.092 6.167c.7-2.678 5.571-14.949 8.385-18.549s8.929-4.7 10.336-4.45c5.048.881 19.342 12.157 17.375 12.724a221.418 221.418 0 00-31.536 11.85c-.9.385-5.225 1-4.558-1.572"/><path class="l" d="M136.582 376.749a1.938 1.938 0 00-1.209 1.489 8.416 8.416 0 001.838 8.049 18.678 18.678 0 0010.93 5.712c12.962 1.2 23.8 2.239 28.263-.45 4.19-2.526 7.194-9.052 5.886-10.812-1.419-1.909-4.068-2.334-6.268-2.625-3.038-.4-6.08-.777-9.127-1.1q-8.22-.862-16.481-1.215c-4.336-.186-9.836-1.2-13.831.953"/><path class="k" d="M186.99 392.736c.516-3.118 1.562-6.982 1.9-10.429.234-2.394 15.967-5.779 18.365-5.369s-.469 9.646-2.533 11.445c-3.627 3.161-13.031 6.222-14.205 6.222s-3.732-.628-3.526-1.868"/><path class="m" d="M242.996 338.125c1.41 1.854 6.888 9.368 8.56 16.241.3-.108.615-.217.924-.325-1.637-6.748-6.945-14.113-8.477-16.14-.319.06-.657.135-1.007.224"/><path class="f" d="M249.293 363.504l-4.162 1.758a1.265 1.265 0 01-1.757-1.165v-.851a1.265 1.265 0 01.773-1.165l4.163-1.758a1.264 1.264 0 011.756 1.165v.851a1.265 1.265 0 01-.773 1.165m14.836-6.623l-3.186 1.345a.968.968 0 01-1.344-.892v-.652a.968.968 0 01.591-.892l3.186-1.345a.968.968 0 011.344.892v.651a.968.968 0 01-.592.892"/><path class="l" d="M194.388 409.652c-.462-2.289-3.315-7.608-7.411-10.512-5-3.546-16.366-1.384-31.628-3.136s-23.237-4.317-26.062-6.907c-.863-.793-1.992 1.144-2.992 3.717.105 2.957.369 5.381.918 6.23 1.719 2.661 11.673 4.97 22.5 7.162s34.741 3.757 37.319 3.757c1.566 0 4.749-.13 7.354-.311"/><path class="b" d="M143.51 387.952v8.011a.58.58 0 00.5.574l14.218 2.062a.581.581 0 00.664-.575v-8.325a.581.581 0 00-.51-.576l-14.218-1.748a.581.581 0 00-.652.576"/><path class="h" d="M219.725 382.536c-3.4 0-6.164 5.795-6.164 12.943s2.76 12.943 6.164 12.943 6.164-5.795 6.164-12.943-2.76-12.943-6.164-12.943m4.764 7.655c.224-.088.456 1.068.548 1.665s.228 1.818.022 2.023-4.125 1.351-4.206.831 3.411-4.43 3.635-4.518m-1.481-4.2c.242.369.694 1.189.584 1.609s-2.959 6.184-3.17 5.862 1.519-7.794 1.676-8.141.668.3.909.67m-2.507 9.487c0 .9-.347 1.629-.776 1.629s-.776-.729-.776-1.629.347-1.628.776-1.628.776.729.776 1.628m-1.7-11.146c.029-.475.624-.58.923-.58s.894.106.923.58-.663 8.655-.923 8.655-.953-8.18-.923-8.655m-2.359 1.659c.242-.369.753-1.018.909-.67s1.887 7.82 1.676 8.141-3.061-5.441-3.17-5.862.343-1.24.584-1.609m-2.029 5.863c.092-.6.324-1.752.548-1.664s3.716 4 3.635 4.518-4-.625-4.206-.831-.07-1.427.023-2.023m.548 8.912c-.224.088-.456-1.068-.548-1.664s-.228-1.818-.023-2.023 4.125-1.351 4.206-.831-3.411 4.43-3.635 4.518m1.481 4.2c-.242-.369-.694-1.189-.585-1.609s2.959-6.184 3.17-5.862-1.519 7.793-1.676 8.141-.668-.3-.909-.67m4.206 1.659c-.029.475-.625.58-.923.58s-.894-.106-.923-.58.663-8.655.923-8.655.953 8.18.923 8.655m2.359-1.659c-.242.369-.753 1.018-.909.67s-1.887-7.82-1.676-8.141 3.061 5.441 3.17 5.862-.343 1.24-.584 1.609m2.029-5.863c-.092.6-.324 1.752-.548 1.664s-3.715-4-3.635-4.518 4 .625 4.206.831.07 1.426-.022 2.023"/><path class="g" d="M135.972 384.472a9.293 9.293 0 00.725 1.159l41.175 4.829a13.355 13.355 0 00.984-.955zm46.551-1.738a4.468 4.468 0 00.066-1.064l-47-4.031a3.2 3.2 0 00-.215.6c-.039.148-.073.3-.106.444zm-.871 2.618l-46.609-4.38a8.112 8.112 0 00.109 1.081l45.975 4.32c.192-.343.367-.684.525-1.022"/><path class="h" d="M235.659 360.232a15.465 15.465 0 00-1.119 3.2c-.176 1.211-2 .926-3.346.855s-1.7-.784-.47-2.636 1.416-1.989 1.416-3.343h3.757z"/><path class="k" d="M189.507 373.719l-.143-.326c.189-.083 19.074-8.354 30.708-9.8l.044.352c-11.583 1.444-30.42 9.695-30.609 9.778"/><path class="f" d="M231.634 358.192a22.7 22.7 0 01.868-4.618 2.55 2.55 0 012.467-1.291c1.3-.059 6.653.076 8.224.7a7.7 7.7 0 012.467 2.73c.137.675.068 2.994-.651 3.375s-10.934.55-12.393.47a1.061 1.061 0 01-.982-1.37"/><path class="n" d="M233.743 335.823q-4.2-.248-7.948-.4l-21.91 21.327c3.016.069 5.79.115 8.207.145zm-11.27-.513c-7.662-.238-13.766-.179-18.456.025l-21.172 20.609a618.2 618.2 0 0017.684.727zm-46.454 20.193q1.49.109 3 .207l20.668-20.121a78.99 78.99 0 00-3.557.339z"/><path class="k" d="M253.914 384.238l-.354-.031a151.24 151.24 0 00.53-16.306 87.276 87.276 0 00-1.581-10.224l.348-.074a87.651 87.651 0 011.588 10.282 151.523 151.523 0 01-.531 16.353"/><path class="f" d="M494.459 348.094c1.185-.044 7.473.189 8.63 1.409a4.648 4.648 0 01.938 2.783c-.387 1.877-4.967 1.811-4.967 1.811z"/><path class="g" d="M402.716 364.495c-2.325-.572-4.336 4.849-4.336 10.831s1.942 10.83 4.336 10.83 4.995-.066 5.41-.441c1.42-1.282 1.8-4.3 1.9-5.161s-.666-14.424-7.311-16.059"/><path class="h" d="M400.024 375.822c0 4.64 1.316 8.4 2.94 8.4s2.94-3.761 2.94-8.4-1.316-8.4-2.94-8.4-2.94 3.761-2.94 8.4m.668-3.432a14.466 14.466 0 011.733 2.933c-.038.338-1.907-.406-2.005-.539a4.047 4.047 0 01.011-1.313c.044-.387.155-1.137.262-1.08m1.939 2.124a24.913 24.913 0 01-1.512-3.805 2.318 2.318 0 01.279-1.044c.115-.239.359-.661.434-.435s.9 5.076.8 5.284m.333.251c.2 0 .37.473.37 1.057s-.165 1.057-.37 1.057-.37-.473-.37-1.057.165-1.057.37-1.057m0-.56c-.125 0-.454-5.309-.441-5.617a.446.446 0 01.881 0c.014.308-.316 5.617-.44 5.617m1.844-3.5a24.914 24.914 0 01-1.512 3.805c-.1-.209.724-5.058.8-5.284s.319.2.434.435a2.318 2.318 0 01.279 1.044m.7 4.075c-.1.133-1.967.877-2.005.539a14.46 14.46 0 011.733-2.932c.107-.057.217.693.261 1.08a4.046 4.046 0 01.01 1.313m-.272 4.471a14.465 14.465 0 01-1.733-2.933c.038-.338 1.907.406 2.005.539a4.044 4.044 0 01-.01 1.313c-.044.387-.155 1.138-.261 1.08m-1.939-2.124a24.952 24.952 0 011.511 3.805 2.319 2.319 0 01-.279 1.045c-.115.239-.359.661-.434.435s-.9-5.075-.8-5.285m-.333.309c.124 0 .454 5.309.44 5.617a.446.446 0 01-.881 0c-.014-.308.316-5.617.441-5.617m-1.844 3.5a24.92 24.92 0 011.512-3.8c.1.209-.724 5.058-.8 5.284s-.318-.2-.434-.435a2.319 2.319 0 01-.279-1.045m-.7-4.074c.1-.133 1.967-.877 2.005-.539a14.475 14.475 0 01-1.733 2.933c-.107.057-.218-.693-.262-1.08a4.045 4.045 0 01-.011-1.313"/><path class="i" d="M449.628 378.658s-6.1 1.072-7.049 6.132-2.375 11.967-2.375 11.967l-1.984 2.171s-1.748-10.1.555-15.613 6.705-5.195 7.821-5.268a10.229 10.229 0 013.033.611"/><path class="g" d="M453.393 378.829c-.942-.334-6.515-1.057-9.215 1.937s-4.4 8.1-4.4 14.645 2.6 16.217 7.455 16.641c4.7.411 7.9.1 9.166-.7.108-.067.215-.137.321-.208a8.159 8.159 0 003.109-3.767c1.095-2.834.864-5.9.973-8.874a46.745 46.745 0 00-.283-7.565 22.054 22.054 0 00-2.094-7.43 9.336 9.336 0 00-5.029-4.683m81.956 19.686c-.156 1.33.585 6.887-7.338 7.983s-10.311-3.283-10.9-5.557z"/><path d="M398.264 356.351c.118-2.348 3.074-8.255 6.713-10.956 4.034-2.992 16.164-11.968 25.84-12.837 16.541-1.486 33.872-.548 37.953 0s9.653 2.778 15.529 7c5.338 3.839 19.727 14.284 19.727 14.284s19.93 5.87 28.973 11.917c7.984 5.339 8.18 9.371 8.18 10.936s1.075 19.684-.645 22.345-11.673 4.97-22.5 7.161-34.741 3.757-37.319 3.757a98.316 98.316 0 01-11.088-.7s-8.682-2-12.034-3.052c.124-2.631.115-5.276.035-7.908-.144-4.745.131-10.027-2.368-14.271-1.582-2.688-4.582-5.191-7.746-5.612-8.195-1.093-9.43 11.418-9.418 16.956 0 .325-.188 3.406.127 3.557l-32.025-15.379s.146-9.175-1.056-14.851c-.558-2.635-.891-3.109-2.157-3.816-3.047-1.7-4.571 9.162-4.571 9.162l-.146-4.9s-.117-10.448 0-12.8" fill="#fbaf5a"/><path class="k" d="M502.227 354.559s-20.559-16.575-27.271-18.1c-3.956-.9-17.5-2.177-43.875-.455a86.492 86.492 0 0112.478 18.8c1 2.1 1.758 2.039 2.524 2.114s33.628.132 56.144-2.36m-62.093 6.167c-.7-2.678-5.571-14.949-8.384-18.549s-8.929-4.7-10.336-4.45c-5.048.881-19.342 12.157-17.375 12.724a221.4 221.4 0 0131.537 11.846c.9.385 5.225 1 4.558-1.572"/><path class="l" d="M531.165 376.749a1.938 1.938 0 011.209 1.489 8.416 8.416 0 01-1.839 8.049 18.677 18.677 0 01-10.929 5.707c-12.961 1.2-23.8 2.239-28.263-.45-4.19-2.526-7.194-9.052-5.886-10.812 1.419-1.909 4.069-2.334 6.268-2.625 3.038-.4 6.08-.777 9.127-1.1q8.219-.862 16.481-1.215c4.336-.186 9.836-1.2 13.831.953"/><path class="k" d="M480.758 392.736c-.516-3.118-1.562-6.982-1.9-10.429-.234-2.394-15.967-5.779-18.365-5.369s.469 9.646 2.533 11.445c3.627 3.161 13.031 6.222 14.2 6.222s3.732-.628 3.527-1.868m60.426-16.036c0 .246.026.9.065 1.839a6.622 6.622 0 01-.412 1.654c-1.212 2.506-4.992 5.969-5.385 5.969a1.385 1.385 0 01-1.178-1.481c.164-2.881-.131-6.147 0-8.167.093-1.483 3.7-3.51 5.642-4.167a7.92 7.92 0 011.271 4.353"/><path class="m" d="M424.751 338.125c-1.41 1.854-6.888 9.368-8.56 16.241-.3-.108-.615-.217-.924-.325 1.637-6.748 6.945-14.113 8.477-16.14.319.06.656.135 1.007.224"/><path class="f" d="M418.454 363.504l4.162 1.758a1.265 1.265 0 001.757-1.165v-.851a1.265 1.265 0 00-.773-1.165l-4.162-1.758a1.264 1.264 0 00-1.756 1.165v.851a1.265 1.265 0 00.772 1.165m-14.836-6.623l3.186 1.345a.968.968 0 001.344-.892v-.652a.968.968 0 00-.591-.892l-3.186-1.345a.968.968 0 00-1.345.892v.651a.968.968 0 00.591.892"/><path class="l" d="M473.358 409.652c.463-2.289 3.315-7.608 7.411-10.512 5-3.546 16.366-1.384 31.628-3.136s23.237-4.317 26.062-6.907c.864-.792 1.992 1.144 2.994 3.717-.105 2.957-.369 5.381-.918 6.23-1.719 2.661-11.673 4.97-22.5 7.162s-34.741 3.757-37.319 3.757c-1.567 0-4.749-.13-7.355-.311"/><path class="b" d="M524.236 387.952v8.011a.58.58 0 01-.5.574l-14.217 2.062a.581.581 0 01-.664-.575v-8.325a.581.581 0 01.51-.576l14.218-1.748a.581.581 0 01.652.576"/><path class="h" d="M441.857 395.479c0 7.148 2.76 12.943 6.165 12.943s6.164-5.795 6.164-12.943-2.76-12.943-6.164-12.943-6.165 5.795-6.165 12.943m5.036-.77c-.08.52-4-.625-4.205-.831s-.07-1.427.022-2.023.324-1.752.548-1.664 3.715 4 3.634 4.518m-1.245-9.387c.157.348 1.887 7.82 1.676 8.141s-3.061-5.441-3.17-5.862.343-1.24.585-1.609.753-1.018.909-.67m2.374 8.529c.428 0 .776.729.776 1.628s-.347 1.629-.776 1.629-.776-.729-.776-1.629.347-1.628.776-1.628m0-.863c-.261 0-.953-8.18-.924-8.655s.624-.581.924-.581.894.105.923.581-.662 8.655-.923 8.655m3.867-5.387c-.109.421-2.959 6.184-3.17 5.862s1.519-7.793 1.676-8.141.668.3.91.67.694 1.189.584 1.609m1.467 6.278c-.206.206-4.125 1.351-4.206.831s3.41-4.43 3.635-4.518.456 1.068.548 1.664.228 1.818.023 2.023m-4.208 2.375c.081-.521 4 .625 4.206.831s.07 1.426-.023 2.023-.324 1.753-.548 1.665-3.715-4-3.635-4.518m1.245 9.387c-.157-.348-1.887-7.819-1.676-8.141s3.061 5.442 3.17 5.862-.343 1.24-.584 1.609-.753 1.018-.91.67m-2.373-7.665c.261 0 .953 8.18.923 8.655s-.625.58-.923.58-.894-.106-.924-.58.662-8.655.924-8.655m-3.865 5.377c.109-.421 2.959-6.184 3.17-5.863s-1.519 7.793-1.676 8.141-.668-.3-.909-.67-.693-1.189-.585-1.609m-1.467-6.278c.206-.206 4.125-1.351 4.205-.831s-3.41 4.43-3.634 4.518-.456-1.068-.548-1.664-.229-1.818-.022-2.023"/><path class="g" d="M531.774 384.472a9.324 9.324 0 01-.725 1.159l-41.175 4.829a13.376 13.376 0 01-.985-.958zm-46.55-1.738a4.446 4.446 0 01-.066-1.064l47-4.031a3.206 3.206 0 01.215.6c.039.148.074.3.106.444zm.871 2.618l46.609-4.38a8.132 8.132 0 01-.109 1.081l-45.975 4.32a15.742 15.742 0 01-.525-1.022"/><path class="h" d="M432.087 360.232a15.45 15.45 0 011.115 3.206c.177 1.211 2 .926 3.346.855s1.7-.784.47-2.636-1.409-1.995-1.409-3.348h-3.757z"/><path class="k" d="M478.239 373.719l.143-.326c-.189-.083-19.073-8.354-30.708-9.8l-.044.352c11.583 1.444 30.42 9.695 30.609 9.778"/><path class="f" d="M436.114 358.192a22.7 22.7 0 00-.868-4.618 2.55 2.55 0 00-2.467-1.291c-1.3-.059-6.653.076-8.224.7a7.7 7.7 0 00-2.467 2.73c-.137.675-.069 2.994.651 3.375s10.934.55 12.394.47a1.062 1.062 0 00.982-1.37"/><path class="n" d="M434.006 335.823q4.2-.248 7.948-.4l21.909 21.327c-3.016.069-5.79.115-8.206.145zm11.268-.513c7.662-.238 13.767-.179 18.457.025l21.171 20.609a618.2 618.2 0 01-17.684.727zm46.452 20.193q-1.49.109-3 .207l-20.666-20.121c1.363.1 2.549.219 3.557.339z"/><path class="k" d="M413.832 384.238l.354-.031a151.309 151.309 0 01-.53-16.306 87.267 87.267 0 011.581-10.224l-.348-.074a87.656 87.656 0 00-1.588 10.282 151.509 151.509 0 00.531 16.353"/><path class="p" d="M276.372 409.12c-.051-.845.228-1.277.192-2.123a47.077 47.077 0 00-.722-8.506c-.265-1.155-1.55-1.262-2.541-1.324a23 23 0 00-8.037.435 9.972 9.972 0 00-5.513 4.633 4.615 4.615 0 001.248 5.559c1.135.943 2.765.922 4.158 1.049 3.234.295 6.472.267 9.716.276.5 0 1 .031 1.5 0m115.001.001c.051-.845-.228-1.277-.192-2.123a47.1 47.1 0 01.722-8.506c.265-1.155 1.55-1.262 2.541-1.324a23 23 0 018.037.435 9.971 9.971 0 015.513 4.633 4.615 4.615 0 01-1.248 5.559c-1.135.943-2.765.922-4.158 1.049-3.234.295-6.472.267-9.716.276-.5 0-1 .031-1.5 0"/><path class="g" d="M265.8 453.854v16.7c0 5.659 1.036 6.97 3.087 8.073 1.177.633 4.432.633 6.569.633s5.392 0 6.569-.633c2.051-1.1 3.087-2.414 3.087-8.073v-16.7zm116.836 0v16.7c0 5.659 1.035 6.97 3.087 8.073 1.177.633 4.432.633 6.569.633s5.391 0 6.569-.633c2.051-1.1 3.087-2.414 3.087-8.073v-16.7z"/><path class="p" d="M399.48 415.317a20.748 20.748 0 00-6.369-6.335 102.1 102.1 0 00-8.828-22.036c-6.073-10.764-12.246-16.62-14.462-17.887s-16.237-2.058-35.946-2.058-33.73.791-35.946 2.058-8.389 7.123-14.462 17.887a102.083 102.083 0 00-8.828 22.036 20.742 20.742 0 00-6.368 6.335c-1.529 2.717-3.583 3.287-3.583 23.074s1.346 23.843 4.353 26.484 45.854 2.483 64.834 2.483 61.827.158 64.834-2.483 4.353-6.7 4.353-26.484-2.054-20.356-3.582-23.074"/><path class="k" d="M385.334 401.037a13.258 13.258 0 00-.942-3.614 104.192 104.192 0 00-5.615-11.964 71.248 71.248 0 00-9.271-13.334c-1.068-1.187-10.345-2.057-35.633-2.057s-34.565.87-35.633 2.057a71.227 71.227 0 00-9.271 13.334 104.317 104.317 0 00-5.615 11.964 13.26 13.26 0 00-.941 3.614c-.087.926-.17 2.319.629 2.983a4.984 4.984 0 002.484.594c1.594.2 3.2.311 4.8.4 4.438.254 8.887.321 13.331.363 5.366.05 10.732.035 16.1.016 4.706-.017 9.412-.042 14.118-.042s9.412.025 14.118.042c5.366.02 10.732.034 16.1-.016 4.444-.041 8.893-.108 13.331-.363 1.6-.092 3.207-.206 4.8-.4a4.983 4.983 0 002.484-.594c.8-.664.716-2.057.629-2.983"/><path class="l" d="M367.004 445.837c-3.008-.385-19.456-.262-33.131-.262s-30.124-.123-33.131.262-5.758 1.018-5.164 2.47c1.146 2.8 7.7 12.371 10.546 13.573s12.65 1.335 27.749 1.335 24.9-.133 27.749-1.335 9.4-10.77 10.546-13.573c.594-1.452-2.157-2.085-5.164-2.47"/><path class="k" d="M269.432 422.652a2.244 2.244 0 00-.522.382c-1.429 1.419-.731 4.081-.333 5.771a29.383 29.383 0 001.667 4.968c1.583 3.64 15.159 3.04 17.273 2.73 1.457-.213 2.017-2.438 2.258-3.607a11.317 11.317 0 00.239-2.742 3.727 3.727 0 00-.634-2.047 4.95 4.95 0 00-1.983-1.292 49.9 49.9 0 00-5.332-2.13 47.229 47.229 0 00-7.337-2.012 16.331 16.331 0 00-3.66-.42 3.892 3.892 0 00-1.637.4m128.883-.001a2.241 2.241 0 01.522.382c1.429 1.419.731 4.081.333 5.771a29.414 29.414 0 01-1.666 4.968c-1.583 3.64-15.159 3.04-17.274 2.73-1.457-.213-2.017-2.438-2.258-3.607a11.308 11.308 0 01-.239-2.742 3.725 3.725 0 01.634-2.047 4.951 4.951 0 011.981-1.292 49.91 49.91 0 015.332-2.13 47.234 47.234 0 017.337-2.012 16.331 16.331 0 013.66-.42 3.891 3.891 0 011.637.4"/><path class="l" d="M359.929 424.286c-1.778-.168-18.159-.4-26.056-.4s-24.279.228-26.056.4c-2.513.237-3.918.618-3.656 2.117.341 1.951.806 10.15 7.534 11.021s16.5.871 22.178.871 15.451 0 22.178-.871 7.193-9.07 7.534-11.021c.262-1.5-1.143-1.88-3.656-2.117"/><path class="g" d="M268.054 459.358c2.71 1.15 13.774 1.184 19.1 1.184s11.136-.016 10.844-1c-1.521-5.118-5.018-7.82-9.741-9.042-7.893-2.043-21.915-4.016-21.892-2.362.064 4.722.333 10.647 1.685 11.221m131.642-.001c-2.71 1.15-13.774 1.184-19.1 1.184s-11.136-.016-10.844-1c1.521-5.118 5.018-7.82 9.741-9.042 7.893-2.043 21.915-4.016 21.892-2.362-.064 4.722-.333 10.647-1.685 11.221"/><path class="n" d="M293.744 405.178q1.593.06 3.188.1l20.23-35.039q-1.74.042-3.3.093zm46.259-35.091c-1.93-.012-3.97-.019-6.129-.019-4.725 0-8.891.03-12.548.087l-20.319 35.194q1.326.017 2.651.03c5.32.049 10.64.036 15.96.016zm-16.896 35.296q4.232-.017 8.463-.024l20.259-35.089a523.45 523.45 0 00-8.361-.152z"/><path class="g" d="M310.963 437.291c.237.053.48.1.734.133.749.1 1.538.183 2.353.259V424.1c-1.147.022-2.19.044-3.087.067zm17.331-13.376c-1 .008-2.035.017-3.087.028v14.289c1.055.02 2.09.034 3.087.043zm-7.124.074c-1.046.014-2.082.028-3.087.043v13.948c1.018.057 2.051.1 3.087.142zm28.493.043c-1-.015-2.04-.029-3.087-.043v14.132c1.035-.038 2.069-.085 3.087-.142zm7.123 13.259v-13.124a499.2 499.2 0 00-3.086-.067v13.583c.815-.076 1.6-.162 2.352-.259.255-.033.5-.08.734-.133m-21.369 1.003v-14.4h-3.086v14.4h3.087m7.121-14.351c-1.051-.011-2.087-.02-3.086-.028v14.36c1-.009 2.032-.023 3.086-.043zm-47.008 24.189a1.1 1.1 0 00.047.171 14.411 14.411 0 00.736 1.464h75.119a14.344 14.344 0 00.736-1.464 1.07 1.07 0 00.047-.171zm7.726 11.318a17.922 17.922 0 001.666 1.635h57.9a17.862 17.862 0 001.666-1.635zm-3.058-3.771c.411.557.83 1.106 1.249 1.634h64.851c.419-.529.838-1.077 1.249-1.634zm-2.595-3.772c.336.526.7 1.075 1.081 1.635h70.377c.382-.56.745-1.109 1.081-1.635z"/><path class="b" d="M346.284 464.827h-25.256a1.77 1.77 0 01-1.77-1.77v-11.488a1.77 1.77 0 011.77-1.77h25.256a1.771 1.771 0 011.77 1.77v11.488a1.771 1.771 0 01-1.77 1.77"/><path d="M333.873 288.267c-9.028 0-17.114 6.067-17.114 17.647 0 15.771 13.545 29.075 17.114 29.075s17.114-13.3 17.114-29.075c0-11.581-8.086-17.647-17.114-17.647m0 27.777a10.448 10.448 0 1110.448-10.448 10.449 10.449 0 01-10.448 10.448" fill="#266fbf"/></svg>