<svg xmlns="http://www.w3.org/2000/svg" width="1920" height="1080" viewBox="0 0 1920 1080"><defs><clipPath id="a"><path transform="translate(4314 1293)" fill="#454545" d="M0 0h1920v1080H0z"/></clipPath><clipPath id="b"><path fill="none" d="M0 0h11669v1131.707H0z"/></clipPath></defs><g transform="translate(-4314 -1293)" style="mix-blend-mode:multiply;isolation:isolate" opacity=".795" clip-path="url(#a)"><g transform="translate(3207.146 1267.146)" style="mix-blend-mode:multiply;isolation:isolate" clip-path="url(#b)"><path d="M1135.354.354l-1237 1237m1244-1237l-1237 1237m1244-1237l-1237 1237m1244-1237l-1237 1237m1244-1237l-1237 1237m1244-1237l-1237 1237m1244-1237l-1237 1237m1244-1237l-1237 1237m1244-1237l-1237 1237m1244-1237l-1237 1237m1244-1237l-1237 1237m1244-1237l-1237 1237m1244-1237l-1237 1237m1244-1237l-1237 1237m1244-1237l-1237 1237m1244-1237l-1237 1237m1244-1237l-1237 1237m1244-1237l-1237 1237m1244-1237l-1237 1237m1244-1237l-1237 1237m1244-1237l-1237 1237m1244-1237l-1237 1237m1244-1237l-1237 1237m1244-1237l-1237 1237m1244-1237l-1237 1237m1244-1237l-1237 1237m1244-1237l-1237 1237m1244-1237l-1237 1237m1244-1237l-1237 1237m1244-1237l-1237 1237m1244-1237l-1237 1237m1244-1237l-1237 1237m1244-1237l-1237 1237m1244-1237l-1237 1237m1244-1237l-1237 1237m1244-1237l-1237 1237m1244-1237l-1237 1237m1244-1237l-1237 1237m1244-1237l-1237 1237m1244-1237l-1237 1237m1244-1237l-1237 1237m1244-1237l-1237 1237m1244-1237l-1237 1237m1244-1237l-1237 1237m1244-1237l-1237 1237m1244-1237l-1237 1237m1244-1237l-1237 1237m1244-1237l-1237 1237m1244-1237l-1237 1237m1244-1237l-1237 1237m1244-1237l-1237 1237m1244-1237l-1237 1237m1244-1237l-1237 1237m1244-1237l-1237 1237m1244-1237l-1237 1237m1244-1237l-1237 1237m1244-1237l-1237 1237m1244-1237l-1237 1237m1244-1237l-1237 1237m1244-1237l-1237 1237m1244-1237l-1237 1237m1244-1237l-1237 1237m1244-1237l-1237 1237m1244-1237l-1237 1237m1244-1237l-1237 1237m1244-1237l-1237 1237m1244-1237l-1237 1237m1244-1237l-1237 1237m1244-1237l-1237 1237m1244-1237l-1237 1237m1244-1237l-1237 1237m1244-1237l-1237 1237m1244-1237l-1237 1237m1244-1237l-1237 1237m1244-1237l-1237 1237m1244-1237l-1237 1237m1244-1237l-1237 1237m1244-1237l-1237 1237m1244-1237l-1237 1237m1244-1237l-1237 1237m1244-1237l-1237 1237m1244-1237l-1237 1237m1244-1237l-1237 1237m1244-1237l-1237 1237m1244-1237l-1237 1237m1244-1237l-1237 1237m1244-1237l-1237 1237m1244-1237l-1237 1237m1244-1237l-1237 1237m1244-1237l-1237 1237m1244-1237l-1237 1237m1244-1237l-1237 1237m1244-1237l-1237 1237m1244-1237l-1237 1237m1244-1237l-1237 1237m1244-1237l-1237 1237m1244-1237l-1237 1237m1244-1237l-1237 1237m1244-1237l-1237 1237m1244-1237l-1237 1237m1244-1237l-1237 1237m1244-1237l-1237 1237m1244-1237l-1237 1237m1244-1237l-1237 1237m1244-1237l-1237 1237m1244-1237l-1237 1237m1244-1237l-1237 1237m1244-1237l-1237 1237m1244-1237l-1237 1237m1244-1237l-1237 1237m1244-1237l-1237 1237m1244-1237l-1237 1237m1244-1237l-1237 1237m1244-1237l-1237 1237m1244-1237l-1237 1237m1244-1237l-1237 1237m1244-1237l-1237 1237m1244-1237l-1237 1237m1244-1237l-1237 1237m1244-1237l-1237 1237m1244-1237l-1237 1237m1244-1237l-1237 1237m1244-1237l-1237 1237m1244-1237l-1237 1237m1244-1237l-1237 1237m1244-1237l-1237 1237m1244-1237l-1237 1237m1244-1237l-1237 1237m1244-1237l-1237 1237m1244-1237l-1237 1237m1244-1237l-1237 1237m1244-1237l-1237 1237m1244-1237l-1237 1237m1244-1237l-1237 1237m1244-1237l-1237 1237m1244-1237l-1237 1237m1244-1237l-1237 1237m1244-1237l-1237 1237m1244-1237l-1237 1237m1244-1237l-1237 1237m1244-1237l-1237 1237m1244-1237l-1237 1237m1244-1237l-1237 1237m1244-1237l-1237 1237m1244-1237l-1237 1237m1244-1237l-1237 1237m1244-1237l-1237 1237m1244-1237l-1237 1237m1244-1237l-1237 1237m1244-1237l-1237 1237m1244-1237l-1237 1237m1244-1237l-1237 1237m1244-1237l-1237 1237m1244-1237l-1237 1237m1244-1237l-1237 1237m1244-1237l-1237 1237m1244-1237l-1237 1237m1244-1237l-1237 1237m1244-1237l-1237 1237m1244-1237l-1237 1237m1244-1237l-1237 1237m1244-1237l-1237 1237m1244-1237l-1237 1237m1244-1237l-1237 1237m1244-1237l-1237 1237m1244-1237l-1237 1237m1244-1237l-1237 1237m1244-1237l-1237 1237m1244-1237l-1237 1237m1244-1237l-1237 1237m1244-1237l-1237 1237m1244-1237l-1237 1237m1244-1237l-1237 1237m1244-1237l-1237 1237m1244-1237l-1237 1237m1244-1237l-1237 1237m1244-1237l-1237 1237m1244-1237l-1237 1237m1244-1237l-1237 1237m1244-1237l-1237 1237m1244-1237l-1237 1237m1244-1237l-1237 1237m1244-1237l-1237 1237m1244-1237l-1237 1237m1244-1237l-1237 1237m1244-1237l-1237 1237m1244-1237l-1237 1237m1244-1237l-1237 1237m1244-1237l-1237 1237m1244-1237l-1237 1237m1244-1237l-1237 1237m1244-1237l-1237 1237m1244-1237l-1237 1237m1244-1237l-1237 1237m1244-1237l-1237 1237m1244-1237l-1237 1237m1244-1237l-1237 1237m1244-1237l-1237 1237m1244-1237l-1237 1237m1244-1237l-1237 1237m1244-1237l-1237 1237m1244-1237l-1237 1237m1244-1237l-1237 1237m1244-1237l-1237 1237m1244-1237l-1237 1237m1244-1237l-1237 1237m1244-1237l-1237 1237m1244-1237l-1237 1237m1244-1237l-1237 1237m1244-1237l-1237 1237m1244-1237l-1237 1237m1244-1237l-1237 1237m1244-1237l-1237 1237m1244-1237l-1237 1237m1244-1237l-1237 1237m1244-1237l-1237 1237m1244-1237l-1237 1237m1244-1237l-1237 1237m1244-1237l-1237 1237m1244-1237l-1237 1237m1244-1237l-1237 1237m1244-1237l-1237 1237m1244-1237l-1237 1237m1244-1237l-1237 1237m1244-1237l-1237 1237m1244-1237l-1237 1237m1244-1237l-1237 1237m1244-1237l-1237 1237m1244-1237l-1237 1237m1244-1237l-1237 1237m1244-1237l-1237 1237m1244-1237l-1237 1237m1244-1237l-1237 1237m1244-1237l-1237 1237m1244-1237l-1237 1237m1244-1237l-1237 1237m1244-1237l-1237 1237m1244-1237l-1237 1237m1244-1237l-1237 1237m1244-1237l-1237 1237m1244-1237l-1237 1237m1244-1237l-1237 1237m1244-1237l-1237 1237m1244-1237l-1237 1237m1244-1237l-1237 1237m1244-1237l-1237 1237m1244-1237l-1237 1237m1244-1237l-1237 1237m1244-1237l-1237 1237m1244-1237l-1237 1237m1244-1237l-1237 1237m1244-1237l-1237 1237m1244-1237l-1237 1237m1244-1237l-1237 1237m1244-1237l-1237 1237m1244-1237l-1237 1237m1244-1237l-1237 1237m1244-1237l-1237 1237m1244-1237l-1237 1237m1244-1237l-1237 1237m1244-1237l-1237 1237m1244-1237l-1237 1237m1244-1237l-1237 1237m1244-1237l-1237 1237m1244-1237l-1237 1237m1244-1237l-1237 1237m1244-1237l-1237 1237m1244-1237l-1237 1237m1244-1237l-1237 1237m1244-1237l-1237 1237m1244-1237l-1237 1237m1244-1237l-1237 1237m1244-1237l-1237 1237m1244-1237l-1237 1237m1244-1237l-1237 1237m1244-1237l-1237 1237m1244-1237l-1237 1237m1244-1237l-1237 1237m1244-1237l-1237 1237m1244-1237l-1237 1237m1244-1237l-1237 1237m1244-1237l-1237 1237m1244-1237l-1237 1237m1244-1237l-1237 1237m1244-1237l-1237 1237m1244-1237l-1237 1237m1244-1237l-1237 1237m1244-1237l-1237 1237m1244-1237l-1237 1237m1244-1237l-1237 1237m1244-1237l-1237 1237m1244-1237l-1237 1237m1244-1237l-1237 1237m1244-1237l-1237 1237m1244-1237l-1237 1237m1244-1237l-1237 1237m1244-1237l-1237 1237m1244-1237l-1237 1237m1244-1237l-1237 1237m1244-1237l-1237 1237m1244-1237l-1237 1237m1244-1237l-1237 1237m1244-1237l-1237 1237m1244-1237l-1237 1237m1244-1237l-1237 1237m1244-1237l-1237 1237m1244-1237l-1237 1237m1244-1237l-1237 1237m1244-1237l-1237 1237m1244-1237l-1237 1237m1244-1237l-1237 1237m1244-1237l-1237 1237m1244-1237l-1237 1237m1244-1237l-1237 1237m1244-1237l-1237 1237m1244-1237l-1237 1237m1244-1237l-1237 1237m1244-1237l-1237 1237m1244-1237l-1237 1237m1244-1237l-1237 1237m1244-1237l-1237 1237m1244-1237l-1237 1237m1244-1237l-1237 1237m1244-1237l-1237 1237m1244-1237l-1237 1237m1244-1237l-1237 1237m1244-1237l-1237 1237m1244-1237l-1237 1237m1244-1237l-1237 1237m1244-1237l-1237 1237m1244-1237l-1237 1237m1244-1237l-1237 1237m1244-1237l-1237 1237m1244-1237l-1237 1237m1244-1237l-1237 1237m1244-1237l-1237 1237m1244-1237l-1237 1237m1244-1237l-1237 1237m1244-1237l-1237 1237m1244-1237l-1237 1237m1244-1237l-1237 1237m1244-1237l-1237 1237m1244-1237l-1237 1237m1244-1237l-1237 1237m1244-1237l-1237 1237m1244-1237l-1237 1237m1244-1237l-1237 1237m1244-1237l-1237 1237m1244-1237l-1237 1237m1244-1237l-1237 1237m1244-1237l-1237 1237m1244-1237l-1237 1237m1244-1237l-1237 1237m1244-1237l-1237 1237m1244-1237l-1237 1237m1244-1237l-1237 1237m1244-1237l-1237 1237m1244-1237l-1237 1237m1244-1237l-1237 1237m1244-1237l-1237 1237m1244-1237l-1237 1237m1244-1237l-1237 1237m1244-1237l-1237 1237m1244-1237l-1237 1237m1244-1237l-1237 1237m1244-1237l-1237 1237m1244-1237l-1237 1237m1244-1237l-1237 1237m1244-1237l-1237 1237m1244-1237l-1237 1237m1244-1237l-1237 1237m1244-1237l-1237 1237m1244-1237l-1237 1237m1244-1237l-1237 1237m1244-1237l-1237 1237m1244-1237l-1237 1237m1244-1237l-1237 1237m1244-1237l-1237 1237m1244-1237l-1237 1237m1244-1237l-1237 1237m1244-1237l-1237 1237m1244-1237l-1237 1237m1244-1237l-1237 1237m1244-1237l-1237 1237m1244-1237l-1237 1237m1244-1237l-1237 1237m1244-1237l-1237 1237m1244-1237l-1237 1237m1244-1237l-1237 1237m1244-1237l-1237 1237m1244-1237l-1237 1237m1244-1237l-1237 1237m1244-1237l-1237 1237m1244-1237l-1237 1237m1244-1237l-1237 1237m1244-1237l-1237 1237m1244-1237l-1237 1237m1244-1237l-1237 1237m1244-1237l-1237 1237m1244-1237l-1237 1237m1244-1237l-1237 1237m1244-1237l-1237 1237m1244-1237l-1237 1237m1244-1237l-1237 1237m1244-1237l-1237 1237m1244-1237l-1237 1237m1244-1237l-1237 1237m1244-1237l-1237 1237m1244-1237l-1237 1237m1244-1237l-1237 1237m1244-1237l-1237 1237m1244-1237l-1237 1237m1244-1237l-1237 1237m1244-1237l-1237 1237m1244-1237l-1237 1237m1244-1237l-1237 1237m1244-1237l-1237 1237m1244-1237l-1237 1237m1244-1237l-1237 1237m1244-1237l-1237 1237m1244-1237l-1237 1237m1244-1237l-1237 1237m1244-1237l-1237 1237m1244-1237l-1237 1237m1244-1237l-1237 1237m1244-1237l-1237 1237m1244-1237l-1237 1237m1244-1237l-1237 1237m1244-1237l-1237 1237m1244-1237l-1237 1237m1244-1237l-1237 1237m1244-1237l-1237 1237m1244-1237l-1237 1237m1244-1237l-1237 1237m1244-1237l-1237 1237m1244-1237l-1237 1237m1244-1237l-1237 1237m1244-1237l-1237 1237m1244-1237l-1237 1237m1244-1237l-1237 1237m1244-1237l-1237 1237m1244-1237l-1237 1237m1244-1237l-1237 1237m1244-1237l-1237 1237m1244-1237l-1237 1237m1244-1237l-1237 1237m1244-1237l-1237 1237m1244-1237l-1237 1237m1244-1237l-1237 1237m1244-1237l-1237 1237m1244-1237l-1237 1237m1244-1237l-1237 1237m1244-1237l-1237 1237m1244-1237l-1237 1237m1244-1237l-1237 1237m1244-1237l-1237 1237m1244-1237l-1237 1237m1244-1237l-1237 1237m1244-1237l-1237 1237m1244-1237l-1237 1237m1244-1237l-1237 1237m1244-1237l-1237 1237m1244-1237l-1237 1237m1244-1237l-1237 1237m1244-1237l-1237 1237m1244-1237l-1237 1237m1244-1237l-1237 1237m1244-1237l-1237 1237m1244-1237l-1237 1237m1244-1237l-1237 1237m1244-1237l-1237 1237m1244-1237l-1237 1237m1244-1237l-1237 1237m1244-1237l-1237 1237m1244-1237l-1237 1237m1244-1237l-1237 1237m1244-1237l-1237 1237m1244-1237l-1237 1237m1244-1237l-1237 1237m1244-1237l-1237 1237m1244-1237l-1237 1237m1244-1237l-1237 1237m1244-1237l-1237 1237m1244-1237l-1237 1237m1244-1237l-1237 1237m1244-1237l-1237 1237m1244-1237l-1237 1237m1244-1237l-1237 1237m1244-1237l-1237 1237m1244-1237l-1237 1237m1244-1237l-1237 1237m1244-1237l-1237 1237m1244-1237l-1237 1237m1244-1237l-1237 1237m1244-1237l-1237 1237m1244-1237l-1237 1237m1244-1237l-1237 1237m1244-1237l-1237 1237m1244-1237l-1237 1237m1244-1237l-1237 1237m1244-1237l-1237 1237m1244-1237l-1237 1237m1244-1237l-1237 1237m1244-1237l-1237 1237m1244-1237l-1237 1237m1244-1237l-1237 1237m1244-1237l-1237 1237m1244-1237l-1237 1237m1244-1237l-1237 1237m1244-1237l-1237 1237m1244-1237l-1237 1237m1244-1237l-1237 1237m1244-1237l-1237 1237m1244-1237l-1237 1237m1244-1237l-1237 1237m1244-1237l-1237 1237m1244-1237l-1237 1237m1244-1237l-1237 1237m1244-1237l-1237 1237m1244-1237l-1237 1237m1244-1237l-1237 1237m1244-1237l-1237 1237m1244-1237l-1237 1237m1244-1237l-1237 1237m1244-1237l-1237 1237m1244-1237l-1237 1237m1244-1237l-1237 1237m1244-1237l-1237 1237m1244-1237l-1237 1237m1244-1237l-1237 1237m1244-1237l-1237 1237m1244-1237l-1237 1237m1244-1237l-1237 1237m1244-1237l-1237 1237m1244-1237l-1237 1237m1244-1237l-1237 1237m1244-1237l-1237 1237m1244-1237l-1237 1237m1244-1237l-1237 1237m1244-1237l-1237 1237m1244-1237l-1237 1237m1244-1237l-1237 1237m1244-1237l-1237 1237m1244-1237l-1237 1237m1244-1237l-1237 1237m1244-1237l-1237 1237m1244-1237l-1237 1237m1244-1237l-1237 1237m1244-1237l-1237 1237m1244-1237l-1237 1237m1244-1237l-1237 1237m1244-1237l-1237 1237m1244-1237l-1237 1237m1244-1237l-1237 1237m1244-1237l-1237 1237m1244-1237l-1237 1237m1244-1237l-1237 1237m1244-1237l-1237 1237m1244-1237l-1237 1237m1244-1237l-1237 1237m1244-1237l-1237 1237m1244-1237l-1237 1237m1244-1237l-1237 1237m1244-1237l-1237 1237m1244-1237l-1237 1237m1244-1237l-1237 1237m1244-1237l-1237 1237m1244-1237l-1237 1237m1244-1237l-1237 1237m1244-1237l-1237 1237m1244-1237l-1237 1237m1244-1237l-1237 1237m1244-1237l-1237 1237m1244-1237l-1237 1237m1244-1237l-1237 1237m1244-1237l-1237 1237m1244-1237l-1237 1237m1244-1237l-1237 1237m1244-1237l-1237 1237m1244-1237l-1237 1237m1244-1237l-1237 1237m1244-1237l-1237 1237m1244-1237l-1237 1237m1244-1237l-1237 1237m1244-1237l-1237 1237m1244-1237l-1237 1237m1244-1237l-1237 1237m1244-1237l-1237 1237m1244-1237l-1237 1237m1244-1237l-1237 1237m1244-1237l-1237 1237m1244-1237l-1237 1237m1244-1237l-1237 1237m1244-1237l-1237 1237m1244-1237l-1237 1237m1244-1237l-1237 1237m1244-1237l-1237 1237m1244-1237l-1237 1237m1244-1237l-1237 1237m1244-1237l-1237 1237m1244-1237l-1237 1237m1244-1237l-1237 1237m1244-1237l-1237 1237m1244-1237l-1237 1237m1244-1237l-1237 1237m1244-1237l-1237 1237m1244-1237l-1237 1237m1244-1237l-1237 1237m1244-1237l-1237 1237m1244-1237l-1237 1237m1244-1237l-1237 1237m1244-1237l-1237 1237m1244-1237l-1237 1237m1244-1237l-1237 1237m1244-1237l-1237 1237m1244-1237l-1237 1237m1244-1237l-1237 1237m1244-1237l-1237 1237m1244-1237l-1237 1237m1244-1237l-1237 1237m1244-1237l-1237 1237m1244-1237l-1237 1237m1244-1237l-1237 1237m1244-1237l-1237 1237m1244-1237l-1237 1237m1244-1237l-1237 1237m1244-1237l-1237 1237m1244-1237l-1237 1237m1244-1237l-1237 1237m1244-1237l-1237 1237m1244-1237l-1237 1237m1244-1237l-1237 1237m1244-1237l-1237 1237m1244-1237l-1237 1237m1244-1237l-1237 1237m1244-1237l-1237 1237m1244-1237l-1237 1237m1244-1237l-1237 1237m1244-1237l-1237 1237m1244-1237l-1237 1237m1244-1237l-1237 1237m1244-1237l-1237 1237m1244-1237l-1237 1237m1244-1237l-1237 1237m1244-1237l-1237 1237m1244-1237l-1237 1237m1244-1237l-1237 1237m1244-1237l-1237 1237m1244-1237l-1237 1237m1244-1237l-1237 1237m1244-1237l-1237 1237m1244-1237l-1237 1237m1244-1237l-1237 1237m1244-1237l-1237 1237m1244-1237l-1237 1237m1244-1237l-1237 1237m1244-1237l-1237 1237m1244-1237l-1237 1237m1244-1237l-1237 1237m1244-1237l-1237 1237m1244-1237l-1237 1237m1244-1237l-1237 1237m1244-1237l-1237 1237m1244-1237l-1237 1237m1244-1237l-1237 1237m1244-1237l-1237 1237m1244-1237l-1237 1237m1244-1237l-1237 1237m1244-1237l-1237 1237m1244-1237l-1237 1237m1244-1237l-1237 1237m1244-1237l-1237 1237m1244-1237l-1237 1237m1244-1237l-1237 1237m1244-1237l-1237 1237m1244-1237l-1237 1237m1244-1237l-1237 1237m1244-1237l-1237 1237m1244-1237l-1237 1237m1244-1237l-1237 1237m1244-1237l-1237 1237m1244-1237l-1237 1237m1244-1237l-1237 1237m1244-1237l-1237 1237m1244-1237l-1237 1237m1244-1237l-1237 1237m1244-1237l-1237 1237m1244-1237l-1237 1237m1244-1237l-1237 1237m1244-1237l-1237 1237m1244-1237l-1237 1237m1244-1237l-1237 1237m1244-1237l-1237 1237m1244-1237l-1237 1237m1244-1237l-1237 1237m1244-1237l-1237 1237m1244-1237l-1237 1237m1244-1237l-1237 1237m1244-1237l-1237 1237m1244-1237l-1237 1237m1244-1237l-1237 1237m1244-1237l-1237 1237m1244-1237l-1237 1237m1244-1237l-1237 1237m1244-1237l-1237 1237m1244-1237l-1237 1237m1244-1237l-1237 1237m1244-1237l-1237 1237m1244-1237l-1237 1237m1244-1237l-1237 1237m1244-1237l-1237 1237m1244-1237l-1237 1237m1244-1237l-1237 1237m1244-1237l-1237 1237m1244-1237l-1237 1237m1244-1237l-1237 1237m1244-1237l-1237 1237m1244-1237l-1237 1237m1244-1237l-1237 1237m1244-1237l-1237 1237m1244-1237l-1237 1237m1244-1237l-1237 1237m1244-1237l-1237 1237m1244-1237l-1237 1237m1244-1237l-1237 1237m1244-1237l-1237 1237m1244-1237l-1237 1237m1244-1237l-1237 1237m1244-1237l-1237 1237m1244-1237l-1237 1237m1244-1237l-1237 1237m1244-1237l-1237 1237m1244-1237l-1237 1237m1244-1237l-1237 1237m1244-1237l-1237 1237m1244-1237l-1237 1237m1244-1237l-1237 1237m1244-1237l-1237 1237m1244-1237l-1237 1237m1244-1237l-1237 1237m1244-1237l-1237 1237m1244-1237l-1237 1237m1244-1237l-1237 1237m1244-1237l-1237 1237m1244-1237l-1237 1237m1244-1237l-1237 1237m1244-1237l-1237 1237m1244-1237l-1237 1237m1244-1237l-1237 1237m1244-1237l-1237 1237m1244-1237l-1237 1237m1244-1237l-1237 1237m1244-1237l-1237 1237m1244-1237l-1237 1237m1244-1237l-1237 1237m1244-1237l-1237 1237m1244-1237l-1237 1237m1244-1237l-1237 1237m1244-1237l-1237 1237m1244-1237l-1237 1237m1244-1237l-1237 1237m1244-1237l-1237 1237m1244-1237l-1237 1237m1244-1237l-1237 1237m1244-1237l-1237 1237m1244-1237l-1237 1237m1244-1237l-1237 1237m1244-1237l-1237 1237m1244-1237l-1237 1237m1244-1237l-1237 1237m1244-1237l-1237 1237m1244-1237l-1237 1237m1244-1237l-1237 1237m1244-1237l-1237 1237m1244-1237l-1237 1237m1244-1237l-1237 1237m1244-1237l-1237 1237m1244-1237l-1237 1237m1244-1237l-1237 1237m1244-1237l-1237 1237m1244-1237l-1237 1237m1244-1237l-1237 1237m1244-1237l-1237 1237m1244-1237l-1237 1237m1244-1237l-1237 1237m1244-1237l-1237 1237m1244-1237l-1237 1237m1244-1237l-1237 1237m1244-1237l-1237 1237m1244-1237l-1237 1237m1244-1237l-1237 1237m1244-1237l-1237 1237m1244-1237l-1237 1237m1244-1237l-1237 1237m1244-1237l-1237 1237m1244-1237l-1237 1237m1244-1237l-1237 1237m1244-1237l-1237 1237m1244-1237l-1237 1237m1244-1237l-1237 1237" fill="none" stroke="#afafaf" stroke-width="3.5"/></g></g></svg>