<svg xmlns="http://www.w3.org/2000/svg" width="73.042" height="16.406" viewBox="0 0 73.042 16.406"><defs><clipPath id="a"><path d="M0 0h73.042v16.406H0z" fill="#fff"/></clipPath></defs><g clip-path="url(#a)" fill="#fff"><path d="M49.455 9.767c-1.095 2.6-1.29 6.863 2.248 3.7.86-.7 1.31 1.232.7 1.8-1.134 1.057-2.952 1.78-4.125.334-1.036-1.31-1-3.4-.685-4.966a15.235 15.235 0 012.444-5.339 20.331 20.331 0 00-6.471 8.7c-.117.313-.508.7-.841.372-.763-.763-.528-1.838-.43-2.8.157-1.193.391-2.366.645-3.657a15.984 15.984 0 01-3.285 4.282c-1.877 1.642-5.474 2.933-7.214.371-2.424-3.559 1.642-8.818 5.22-9.677 1.095-.274 2.542-.235 3.07.958.586 1.368-.528 2.561-1.388 3.519a15.969 15.969 0 01-3.441 2.718c-.43.274-.606-.8-.293-1.057a17.347 17.347 0 002.933-2.581c.528-.625 1.916-1.916.293-2.053-2.5-.215-6.667 3.656-5.846 6.393a2.466 2.466 0 002.639 1.349c2.335-.136 4.096-2.036 5.327-3.836.7-1.017 1.349-2.092 1.994-3.128A24.744 24.744 0 0145.1 1.904c.548-.645 1.31.313 1.154.7a27.5 27.5 0 00-2.4 7.547 22.223 22.223 0 019.462-8.934c.743-.411.978 1.173.645 1.585a31.185 31.185 0 00-4.5 6.96"/><path d="M58.393 9.253a3.2 3.2 0 01-2.913 1.173c-.938 1.271-2.7 2.874-3.734 1.173-1.057-1.7.352-3.93 1.721-5.064a3.218 3.218 0 012.287-1.838c1.016 0 1.134 1.251 1.095 2.053a7.716 7.716 0 01-.645 2.405 2.781 2.781 0 001.681-.88c.411-.469.782.626.508.977m-4.086.8a1.588 1.588 0 01-1.036-1.349c-.195.391-1.134 2.248-.137 2.053a2.816 2.816 0 001.173-.7m1.095-1.31c.371-.743 1.017-2.308.8-2.816-.156-.332-.606-.254-1.1.313-1.212 1.369-.841 2.405.156 2.776.078.039.078-.156.137-.274"/><path d="M66.74 2.841c-1.467.117-2.972.039-4.458.059h-.137a26.326 26.326 0 00-3.031 7.117c-.743 3.363 1.075 1.76 2.112-1.212a.343.343 0 01.665.137 12.645 12.645 0 01-1.74 3.285c-.548.7-1.7 1.329-2.385.334a3.872 3.872 0 01-.254-3.246 31.89 31.89 0 012.659-6.374 23.107 23.107 0 01-2.327-.039c-.215-.019-.215-.528-.02-.548.918-.078 1.8-.078 2.718-.078a.069.069 0 00.019-.039 7.476 7.476 0 011.173-1.7.79.79 0 011.427.469 13.561 13.561 0 01-.7 1.291c1.408-.019 2.855-.1 4.262-.019.254 0 .274.567.019.567"/><path d="M67.775 9.253a3.2 3.2 0 01-2.913 1.173c-.938 1.271-2.7 2.874-3.734 1.173-1.057-1.7.352-3.93 1.721-5.064A3.218 3.218 0 0165.136 4.7c1.016 0 1.134 1.251 1.095 2.053a7.724 7.724 0 01-.645 2.405 2.781 2.781 0 001.681-.88c.411-.469.782.626.508.977m-4.086.8a1.588 1.588 0 01-1.036-1.349c-.195.391-1.134 2.248-.137 2.053a2.816 2.816 0 001.173-.7m1.095-1.31c.371-.743 1.017-2.308.8-2.816-.156-.332-.606-.254-1.1.313-1.212 1.369-.841 2.405.156 2.776.078.039.078-.156.137-.274M8.966 4.81a20.222 20.222 0 00-1.051 1.977c-.321.762.182.761.937.4A7.425 7.425 0 0012.386 3.6C13.291.664 9.4 1.812 7.71 2.734a12.253 12.253 0 00-5.377 5.508c-.8 1.721-1.225 4.183.762 5.413C5.6 15.207 9.87 11.4 10.813 9.753c.24-.417.82-.169 1.041.052a.873.873 0 010 1.208 9.9 9.9 0 01-5.033 4.127 5.446 5.446 0 01-5.347-.947C-2.4 10.669 2.063 3.752 6.7 1.243c1.583-.858 4-1.683 5.73-.974 3.414 1.448.513 6.037-1.769 7.653-1.265.936-3.387 1.741-4.285.308C5.542 6.865 6.609 4.721 8 3.657c.715-.556 1.142.789.966 1.153"/><path d="M18.493 9.982a8.579 8.579 0 01-1.939 3.148c-.841.723-2.268.508-2.19-1.017-1.232 1.7-3.285 1.6-3.793-.137-.646-2.034 1.467-4.614 3.7-5.4a3.332 3.332 0 012.248-.215c.391.137.918.821.645 1.232a16.962 16.962 0 00-1.8 3.285c-.254.7-.1 1.838.841 1.134a6.486 6.486 0 001.662-2.248c.274-.626.782-.215.626.215m-2.757-2.248c-1.31.411-3.656 1.642-3.754 3.324a.69.69 0 00.782.743c1.31-.293 2.092-3.05 2.972-4.067"/><path d="M21.855 2.296c.411-.254 1.408.469 1.153.918-1.094 1.997-2.542 4.597-3.632 7.139-.7 1.723-.586 3.345.274 2.446a20.845 20.845 0 001.974-3.265c.274-.489.743.118.606.469-.41 1.094-1.408 3.46-2.523 3.988a1.01 1.01 0 01-.7.078 1.6 1.6 0 01-1.095-.939 4.683 4.683 0 01.118-3.695 32.012 32.012 0 013.207-6.452 2.413 2.413 0 01.626-.684m4.341.232a18.185 18.185 0 01-.6 1.738.793.793 0 01-1.279.056c-.252-.455.142-1.013.311-1.534a2.871 2.871 0 01.506-.973c.5-.3 1.2.264 1.065.715m2.824 5.121c-.26.667-.528.918-.864.893a.286.286 0 01-.275-.312.913.913 0 00-1.009-1c-1.337 0-2.267.449-2.614 1.552s2.9 1.285 2.759 2.895a3.036 3.036 0 01-3.063 2.189 1.711 1.711 0 01-1.832-2.146 1.126 1.126 0 01.98-.92c.225 0 .336.318.273.389a.9.9 0 00.779 1.529 1.854 1.854 0 001.548-1.048c.293-.949-3.122-1.272-3.028-2.75.129-2.03 2.772-3.271 4.834-2.856 1.386.278 1.714 1.07 1.513 1.585m43.9-1.819a.914.914 0 00-.81-.328 4.179 4.179 0 00-2.574 1.37c.27-.54.321-.876.174-1.1s-.433-.3-.921-.266a.612.612 0 00-.447.174.145.145 0 00-.03.092 2.818 2.818 0 01-.426 1.105l-2.248 4.186c-.081.151-.159.287-.23.411-.243.423-.4.7-.278.918.093.161.309.227.744.227a1.982 1.982 0 00.816-.137.142.142 0 00.076-.134 2.472 2.472 0 01.382-1.019 11.777 11.777 0 012.547-3.466c.689-.637 1.018-.771 1.172-.771a.324.324 0 01.071.007.236.236 0 01-.022.111 2.22 2.22 0 01-.4.638.137.137 0 00.054.222 2.025 2.025 0 00.632.09 2 2 0 001.742-1.4.982.982 0 00-.024-.923"/></g></svg>